%TF.GenerationSoftware,KiCad,Pcbnew,7.0.10*%
%TF.CreationDate,2024-05-08T17:05:56+09:00*%
%TF.ProjectId,CANFD_Module_withMCP2517FD&MCP2562FD,43414e46-445f-44d6-9f64-756c655f7769,rev?*%
%TF.SameCoordinates,Original*%
%TF.FileFunction,Legend,Top*%
%TF.FilePolarity,Positive*%
%FSLAX46Y46*%
G04 Gerber Fmt 4.6, Leading zero omitted, Abs format (unit mm)*
G04 Created by KiCad (PCBNEW 7.0.10) date 2024-05-08 17:05:56*
%MOMM*%
%LPD*%
G01*
G04 APERTURE LIST*
%ADD10C,0.150000*%
%ADD11C,0.120000*%
G04 APERTURE END LIST*
D10*
X127849333Y-73131819D02*
X127516000Y-72655628D01*
X127277905Y-73131819D02*
X127277905Y-72131819D01*
X127277905Y-72131819D02*
X127658857Y-72131819D01*
X127658857Y-72131819D02*
X127754095Y-72179438D01*
X127754095Y-72179438D02*
X127801714Y-72227057D01*
X127801714Y-72227057D02*
X127849333Y-72322295D01*
X127849333Y-72322295D02*
X127849333Y-72465152D01*
X127849333Y-72465152D02*
X127801714Y-72560390D01*
X127801714Y-72560390D02*
X127754095Y-72608009D01*
X127754095Y-72608009D02*
X127658857Y-72655628D01*
X127658857Y-72655628D02*
X127277905Y-72655628D01*
X128230286Y-72227057D02*
X128277905Y-72179438D01*
X128277905Y-72179438D02*
X128373143Y-72131819D01*
X128373143Y-72131819D02*
X128611238Y-72131819D01*
X128611238Y-72131819D02*
X128706476Y-72179438D01*
X128706476Y-72179438D02*
X128754095Y-72227057D01*
X128754095Y-72227057D02*
X128801714Y-72322295D01*
X128801714Y-72322295D02*
X128801714Y-72417533D01*
X128801714Y-72417533D02*
X128754095Y-72560390D01*
X128754095Y-72560390D02*
X128182667Y-73131819D01*
X128182667Y-73131819D02*
X128801714Y-73131819D01*
X138066819Y-85089904D02*
X138876342Y-85089904D01*
X138876342Y-85089904D02*
X138971580Y-85042285D01*
X138971580Y-85042285D02*
X139019200Y-84994666D01*
X139019200Y-84994666D02*
X139066819Y-84899428D01*
X139066819Y-84899428D02*
X139066819Y-84708952D01*
X139066819Y-84708952D02*
X139019200Y-84613714D01*
X139019200Y-84613714D02*
X138971580Y-84566095D01*
X138971580Y-84566095D02*
X138876342Y-84518476D01*
X138876342Y-84518476D02*
X138066819Y-84518476D01*
X138400152Y-83613714D02*
X139066819Y-83613714D01*
X138019200Y-83851809D02*
X138733485Y-84089904D01*
X138733485Y-84089904D02*
X138733485Y-83470857D01*
X124570819Y-76707904D02*
X125380342Y-76707904D01*
X125380342Y-76707904D02*
X125475580Y-76660285D01*
X125475580Y-76660285D02*
X125523200Y-76612666D01*
X125523200Y-76612666D02*
X125570819Y-76517428D01*
X125570819Y-76517428D02*
X125570819Y-76326952D01*
X125570819Y-76326952D02*
X125523200Y-76231714D01*
X125523200Y-76231714D02*
X125475580Y-76184095D01*
X125475580Y-76184095D02*
X125380342Y-76136476D01*
X125380342Y-76136476D02*
X124570819Y-76136476D01*
X124570819Y-75755523D02*
X124570819Y-75136476D01*
X124570819Y-75136476D02*
X124951771Y-75469809D01*
X124951771Y-75469809D02*
X124951771Y-75326952D01*
X124951771Y-75326952D02*
X124999390Y-75231714D01*
X124999390Y-75231714D02*
X125047009Y-75184095D01*
X125047009Y-75184095D02*
X125142247Y-75136476D01*
X125142247Y-75136476D02*
X125380342Y-75136476D01*
X125380342Y-75136476D02*
X125475580Y-75184095D01*
X125475580Y-75184095D02*
X125523200Y-75231714D01*
X125523200Y-75231714D02*
X125570819Y-75326952D01*
X125570819Y-75326952D02*
X125570819Y-75612666D01*
X125570819Y-75612666D02*
X125523200Y-75707904D01*
X125523200Y-75707904D02*
X125475580Y-75755523D01*
X121666095Y-80934819D02*
X121666095Y-81744342D01*
X121666095Y-81744342D02*
X121713714Y-81839580D01*
X121713714Y-81839580D02*
X121761333Y-81887200D01*
X121761333Y-81887200D02*
X121856571Y-81934819D01*
X121856571Y-81934819D02*
X122047047Y-81934819D01*
X122047047Y-81934819D02*
X122142285Y-81887200D01*
X122142285Y-81887200D02*
X122189904Y-81839580D01*
X122189904Y-81839580D02*
X122237523Y-81744342D01*
X122237523Y-81744342D02*
X122237523Y-80934819D01*
X122666095Y-81030057D02*
X122713714Y-80982438D01*
X122713714Y-80982438D02*
X122808952Y-80934819D01*
X122808952Y-80934819D02*
X123047047Y-80934819D01*
X123047047Y-80934819D02*
X123142285Y-80982438D01*
X123142285Y-80982438D02*
X123189904Y-81030057D01*
X123189904Y-81030057D02*
X123237523Y-81125295D01*
X123237523Y-81125295D02*
X123237523Y-81220533D01*
X123237523Y-81220533D02*
X123189904Y-81363390D01*
X123189904Y-81363390D02*
X122618476Y-81934819D01*
X122618476Y-81934819D02*
X123237523Y-81934819D01*
X133350095Y-69714819D02*
X133350095Y-70524342D01*
X133350095Y-70524342D02*
X133397714Y-70619580D01*
X133397714Y-70619580D02*
X133445333Y-70667200D01*
X133445333Y-70667200D02*
X133540571Y-70714819D01*
X133540571Y-70714819D02*
X133731047Y-70714819D01*
X133731047Y-70714819D02*
X133826285Y-70667200D01*
X133826285Y-70667200D02*
X133873904Y-70619580D01*
X133873904Y-70619580D02*
X133921523Y-70524342D01*
X133921523Y-70524342D02*
X133921523Y-69714819D01*
X134921523Y-70714819D02*
X134350095Y-70714819D01*
X134635809Y-70714819D02*
X134635809Y-69714819D01*
X134635809Y-69714819D02*
X134540571Y-69857676D01*
X134540571Y-69857676D02*
X134445333Y-69952914D01*
X134445333Y-69952914D02*
X134350095Y-70000533D01*
X126936667Y-67513200D02*
X127079524Y-67560819D01*
X127079524Y-67560819D02*
X127317619Y-67560819D01*
X127317619Y-67560819D02*
X127412857Y-67513200D01*
X127412857Y-67513200D02*
X127460476Y-67465580D01*
X127460476Y-67465580D02*
X127508095Y-67370342D01*
X127508095Y-67370342D02*
X127508095Y-67275104D01*
X127508095Y-67275104D02*
X127460476Y-67179866D01*
X127460476Y-67179866D02*
X127412857Y-67132247D01*
X127412857Y-67132247D02*
X127317619Y-67084628D01*
X127317619Y-67084628D02*
X127127143Y-67037009D01*
X127127143Y-67037009D02*
X127031905Y-66989390D01*
X127031905Y-66989390D02*
X126984286Y-66941771D01*
X126984286Y-66941771D02*
X126936667Y-66846533D01*
X126936667Y-66846533D02*
X126936667Y-66751295D01*
X126936667Y-66751295D02*
X126984286Y-66656057D01*
X126984286Y-66656057D02*
X127031905Y-66608438D01*
X127031905Y-66608438D02*
X127127143Y-66560819D01*
X127127143Y-66560819D02*
X127365238Y-66560819D01*
X127365238Y-66560819D02*
X127508095Y-66608438D01*
X127841429Y-66560819D02*
X128079524Y-67560819D01*
X128079524Y-67560819D02*
X128270000Y-66846533D01*
X128270000Y-66846533D02*
X128460476Y-67560819D01*
X128460476Y-67560819D02*
X128698572Y-66560819D01*
X129603333Y-67560819D02*
X129031905Y-67560819D01*
X129317619Y-67560819D02*
X129317619Y-66560819D01*
X129317619Y-66560819D02*
X129222381Y-66703676D01*
X129222381Y-66703676D02*
X129127143Y-66798914D01*
X129127143Y-66798914D02*
X129031905Y-66846533D01*
X135996819Y-69508666D02*
X135520628Y-69841999D01*
X135996819Y-70080094D02*
X134996819Y-70080094D01*
X134996819Y-70080094D02*
X134996819Y-69699142D01*
X134996819Y-69699142D02*
X135044438Y-69603904D01*
X135044438Y-69603904D02*
X135092057Y-69556285D01*
X135092057Y-69556285D02*
X135187295Y-69508666D01*
X135187295Y-69508666D02*
X135330152Y-69508666D01*
X135330152Y-69508666D02*
X135425390Y-69556285D01*
X135425390Y-69556285D02*
X135473009Y-69603904D01*
X135473009Y-69603904D02*
X135520628Y-69699142D01*
X135520628Y-69699142D02*
X135520628Y-70080094D01*
X135996819Y-68556285D02*
X135996819Y-69127713D01*
X135996819Y-68841999D02*
X134996819Y-68841999D01*
X134996819Y-68841999D02*
X135139676Y-68937237D01*
X135139676Y-68937237D02*
X135234914Y-69032475D01*
X135234914Y-69032475D02*
X135282533Y-69127713D01*
X139366666Y-68249819D02*
X139366666Y-68964104D01*
X139366666Y-68964104D02*
X139319047Y-69106961D01*
X139319047Y-69106961D02*
X139223809Y-69202200D01*
X139223809Y-69202200D02*
X139080952Y-69249819D01*
X139080952Y-69249819D02*
X138985714Y-69249819D01*
X139795238Y-68345057D02*
X139842857Y-68297438D01*
X139842857Y-68297438D02*
X139938095Y-68249819D01*
X139938095Y-68249819D02*
X140176190Y-68249819D01*
X140176190Y-68249819D02*
X140271428Y-68297438D01*
X140271428Y-68297438D02*
X140319047Y-68345057D01*
X140319047Y-68345057D02*
X140366666Y-68440295D01*
X140366666Y-68440295D02*
X140366666Y-68535533D01*
X140366666Y-68535533D02*
X140319047Y-68678390D01*
X140319047Y-68678390D02*
X139747619Y-69249819D01*
X139747619Y-69249819D02*
X140366666Y-69249819D01*
X116506666Y-68249819D02*
X116506666Y-68964104D01*
X116506666Y-68964104D02*
X116459047Y-69106961D01*
X116459047Y-69106961D02*
X116363809Y-69202200D01*
X116363809Y-69202200D02*
X116220952Y-69249819D01*
X116220952Y-69249819D02*
X116125714Y-69249819D01*
X117506666Y-69249819D02*
X116935238Y-69249819D01*
X117220952Y-69249819D02*
X117220952Y-68249819D01*
X117220952Y-68249819D02*
X117125714Y-68392676D01*
X117125714Y-68392676D02*
X117030476Y-68487914D01*
X117030476Y-68487914D02*
X116935238Y-68535533D01*
X134961333Y-77923580D02*
X134913714Y-77971200D01*
X134913714Y-77971200D02*
X134770857Y-78018819D01*
X134770857Y-78018819D02*
X134675619Y-78018819D01*
X134675619Y-78018819D02*
X134532762Y-77971200D01*
X134532762Y-77971200D02*
X134437524Y-77875961D01*
X134437524Y-77875961D02*
X134389905Y-77780723D01*
X134389905Y-77780723D02*
X134342286Y-77590247D01*
X134342286Y-77590247D02*
X134342286Y-77447390D01*
X134342286Y-77447390D02*
X134389905Y-77256914D01*
X134389905Y-77256914D02*
X134437524Y-77161676D01*
X134437524Y-77161676D02*
X134532762Y-77066438D01*
X134532762Y-77066438D02*
X134675619Y-77018819D01*
X134675619Y-77018819D02*
X134770857Y-77018819D01*
X134770857Y-77018819D02*
X134913714Y-77066438D01*
X134913714Y-77066438D02*
X134961333Y-77114057D01*
X135866095Y-77018819D02*
X135389905Y-77018819D01*
X135389905Y-77018819D02*
X135342286Y-77495009D01*
X135342286Y-77495009D02*
X135389905Y-77447390D01*
X135389905Y-77447390D02*
X135485143Y-77399771D01*
X135485143Y-77399771D02*
X135723238Y-77399771D01*
X135723238Y-77399771D02*
X135818476Y-77447390D01*
X135818476Y-77447390D02*
X135866095Y-77495009D01*
X135866095Y-77495009D02*
X135913714Y-77590247D01*
X135913714Y-77590247D02*
X135913714Y-77828342D01*
X135913714Y-77828342D02*
X135866095Y-77923580D01*
X135866095Y-77923580D02*
X135818476Y-77971200D01*
X135818476Y-77971200D02*
X135723238Y-78018819D01*
X135723238Y-78018819D02*
X135485143Y-78018819D01*
X135485143Y-78018819D02*
X135389905Y-77971200D01*
X135389905Y-77971200D02*
X135342286Y-77923580D01*
X131456580Y-82335666D02*
X131504200Y-82383285D01*
X131504200Y-82383285D02*
X131551819Y-82526142D01*
X131551819Y-82526142D02*
X131551819Y-82621380D01*
X131551819Y-82621380D02*
X131504200Y-82764237D01*
X131504200Y-82764237D02*
X131408961Y-82859475D01*
X131408961Y-82859475D02*
X131313723Y-82907094D01*
X131313723Y-82907094D02*
X131123247Y-82954713D01*
X131123247Y-82954713D02*
X130980390Y-82954713D01*
X130980390Y-82954713D02*
X130789914Y-82907094D01*
X130789914Y-82907094D02*
X130694676Y-82859475D01*
X130694676Y-82859475D02*
X130599438Y-82764237D01*
X130599438Y-82764237D02*
X130551819Y-82621380D01*
X130551819Y-82621380D02*
X130551819Y-82526142D01*
X130551819Y-82526142D02*
X130599438Y-82383285D01*
X130599438Y-82383285D02*
X130647057Y-82335666D01*
X130885152Y-81478523D02*
X131551819Y-81478523D01*
X130504200Y-81716618D02*
X131218485Y-81954713D01*
X131218485Y-81954713D02*
X131218485Y-81335666D01*
X132167333Y-79005580D02*
X132119714Y-79053200D01*
X132119714Y-79053200D02*
X131976857Y-79100819D01*
X131976857Y-79100819D02*
X131881619Y-79100819D01*
X131881619Y-79100819D02*
X131738762Y-79053200D01*
X131738762Y-79053200D02*
X131643524Y-78957961D01*
X131643524Y-78957961D02*
X131595905Y-78862723D01*
X131595905Y-78862723D02*
X131548286Y-78672247D01*
X131548286Y-78672247D02*
X131548286Y-78529390D01*
X131548286Y-78529390D02*
X131595905Y-78338914D01*
X131595905Y-78338914D02*
X131643524Y-78243676D01*
X131643524Y-78243676D02*
X131738762Y-78148438D01*
X131738762Y-78148438D02*
X131881619Y-78100819D01*
X131881619Y-78100819D02*
X131976857Y-78100819D01*
X131976857Y-78100819D02*
X132119714Y-78148438D01*
X132119714Y-78148438D02*
X132167333Y-78196057D01*
X132500667Y-78100819D02*
X133119714Y-78100819D01*
X133119714Y-78100819D02*
X132786381Y-78481771D01*
X132786381Y-78481771D02*
X132929238Y-78481771D01*
X132929238Y-78481771D02*
X133024476Y-78529390D01*
X133024476Y-78529390D02*
X133072095Y-78577009D01*
X133072095Y-78577009D02*
X133119714Y-78672247D01*
X133119714Y-78672247D02*
X133119714Y-78910342D01*
X133119714Y-78910342D02*
X133072095Y-79005580D01*
X133072095Y-79005580D02*
X133024476Y-79053200D01*
X133024476Y-79053200D02*
X132929238Y-79100819D01*
X132929238Y-79100819D02*
X132643524Y-79100819D01*
X132643524Y-79100819D02*
X132548286Y-79053200D01*
X132548286Y-79053200D02*
X132500667Y-79005580D01*
X120737333Y-80463580D02*
X120689714Y-80511200D01*
X120689714Y-80511200D02*
X120546857Y-80558819D01*
X120546857Y-80558819D02*
X120451619Y-80558819D01*
X120451619Y-80558819D02*
X120308762Y-80511200D01*
X120308762Y-80511200D02*
X120213524Y-80415961D01*
X120213524Y-80415961D02*
X120165905Y-80320723D01*
X120165905Y-80320723D02*
X120118286Y-80130247D01*
X120118286Y-80130247D02*
X120118286Y-79987390D01*
X120118286Y-79987390D02*
X120165905Y-79796914D01*
X120165905Y-79796914D02*
X120213524Y-79701676D01*
X120213524Y-79701676D02*
X120308762Y-79606438D01*
X120308762Y-79606438D02*
X120451619Y-79558819D01*
X120451619Y-79558819D02*
X120546857Y-79558819D01*
X120546857Y-79558819D02*
X120689714Y-79606438D01*
X120689714Y-79606438D02*
X120737333Y-79654057D01*
X121118286Y-79654057D02*
X121165905Y-79606438D01*
X121165905Y-79606438D02*
X121261143Y-79558819D01*
X121261143Y-79558819D02*
X121499238Y-79558819D01*
X121499238Y-79558819D02*
X121594476Y-79606438D01*
X121594476Y-79606438D02*
X121642095Y-79654057D01*
X121642095Y-79654057D02*
X121689714Y-79749295D01*
X121689714Y-79749295D02*
X121689714Y-79844533D01*
X121689714Y-79844533D02*
X121642095Y-79987390D01*
X121642095Y-79987390D02*
X121070667Y-80558819D01*
X121070667Y-80558819D02*
X121689714Y-80558819D01*
X127849333Y-74560580D02*
X127801714Y-74608200D01*
X127801714Y-74608200D02*
X127658857Y-74655819D01*
X127658857Y-74655819D02*
X127563619Y-74655819D01*
X127563619Y-74655819D02*
X127420762Y-74608200D01*
X127420762Y-74608200D02*
X127325524Y-74512961D01*
X127325524Y-74512961D02*
X127277905Y-74417723D01*
X127277905Y-74417723D02*
X127230286Y-74227247D01*
X127230286Y-74227247D02*
X127230286Y-74084390D01*
X127230286Y-74084390D02*
X127277905Y-73893914D01*
X127277905Y-73893914D02*
X127325524Y-73798676D01*
X127325524Y-73798676D02*
X127420762Y-73703438D01*
X127420762Y-73703438D02*
X127563619Y-73655819D01*
X127563619Y-73655819D02*
X127658857Y-73655819D01*
X127658857Y-73655819D02*
X127801714Y-73703438D01*
X127801714Y-73703438D02*
X127849333Y-73751057D01*
X128801714Y-74655819D02*
X128230286Y-74655819D01*
X128516000Y-74655819D02*
X128516000Y-73655819D01*
X128516000Y-73655819D02*
X128420762Y-73798676D01*
X128420762Y-73798676D02*
X128325524Y-73893914D01*
X128325524Y-73893914D02*
X128230286Y-73941533D01*
D11*
%TO.C,R2*%
X128253258Y-70724500D02*
X127778742Y-70724500D01*
X128253258Y-71769500D02*
X127778742Y-71769500D01*
%TO.C,U4*%
X137522000Y-80228000D02*
X137522000Y-86238000D01*
X130702000Y-82478000D02*
X130702000Y-86238000D01*
X130702000Y-86238000D02*
X131962000Y-86238000D01*
X137522000Y-86238000D02*
X136262000Y-86238000D01*
%TO.C,U3*%
X126406000Y-75046000D02*
X126406000Y-77496000D01*
X129626000Y-76846000D02*
X129626000Y-75046000D01*
%TO.C,U2*%
X122428000Y-80635000D02*
X120478000Y-80635000D01*
X122428000Y-71765000D02*
X120478000Y-71765000D01*
X122428000Y-80635000D02*
X125878000Y-80635000D01*
X122428000Y-71765000D02*
X124378000Y-71765000D01*
%TO.C,U1*%
X134112000Y-71100000D02*
X136062000Y-71100000D01*
X134112000Y-76220000D02*
X136062000Y-76220000D01*
X134112000Y-71100000D02*
X130662000Y-71100000D01*
X134112000Y-76220000D02*
X132162000Y-76220000D01*
D10*
%TO.C,SW1*%
X124020000Y-68806000D02*
X124020000Y-65306000D01*
X124870000Y-68806000D02*
X124020000Y-68806000D01*
X126670000Y-68806000D02*
X127370000Y-68806000D01*
X129170000Y-68806000D02*
X129870000Y-68806000D01*
X131670000Y-68806000D02*
X132520000Y-68806000D01*
X132520000Y-68806000D02*
X132520000Y-65306000D01*
X124020000Y-65306000D02*
X124870000Y-65306000D01*
X126670000Y-65306000D02*
X127370000Y-65306000D01*
X129170000Y-65306000D02*
X129870000Y-65306000D01*
X132520000Y-65306000D02*
X131670000Y-65306000D01*
D11*
%TO.C,R1*%
X133589500Y-69104742D02*
X133589500Y-69579258D01*
X134634500Y-69104742D02*
X134634500Y-69579258D01*
%TO.C,J2*%
X141030000Y-72395000D02*
X141030000Y-82615000D01*
X138370000Y-69795000D02*
X139700000Y-69795000D01*
X138370000Y-72395000D02*
X138370000Y-82615000D01*
X138370000Y-82615000D02*
X141030000Y-82615000D01*
X138370000Y-72395000D02*
X141030000Y-72395000D01*
X138370000Y-71125000D02*
X138370000Y-69795000D01*
%TO.C,J1*%
X115510000Y-71125000D02*
X115510000Y-69795000D01*
X115510000Y-72395000D02*
X118170000Y-72395000D01*
X115510000Y-82615000D02*
X118170000Y-82615000D01*
X115510000Y-72395000D02*
X115510000Y-82615000D01*
X115510000Y-69795000D02*
X116840000Y-69795000D01*
X118170000Y-72395000D02*
X118170000Y-82615000D01*
%TO.C,C5*%
X134987420Y-79504000D02*
X135268580Y-79504000D01*
X134987420Y-78484000D02*
X135268580Y-78484000D01*
%TO.C,C4*%
X129157000Y-82028420D02*
X129157000Y-82309580D01*
X130177000Y-82028420D02*
X130177000Y-82309580D01*
%TO.C,C3*%
X132474580Y-76706000D02*
X132193420Y-76706000D01*
X132474580Y-77726000D02*
X132193420Y-77726000D01*
%TO.C,C2*%
X120763420Y-82044000D02*
X121044580Y-82044000D01*
X120763420Y-81024000D02*
X121044580Y-81024000D01*
%TO.C,C1*%
X128156580Y-72261000D02*
X127875420Y-72261000D01*
X128156580Y-73281000D02*
X127875420Y-73281000D01*
%TD*%
M02*
