%TF.GenerationSoftware,KiCad,Pcbnew,7.0.10*%
%TF.CreationDate,2024-05-08T17:12:16+09:00*%
%TF.ProjectId,CANFD_Module_withMCP2517FD&MCP2562FD,43414e46-445f-44d6-9f64-756c655f7769,rev?*%
%TF.SameCoordinates,Original*%
%TF.FileFunction,Drillmap*%
%TF.FilePolarity,Positive*%
%FSLAX45Y45*%
G04 Gerber Fmt 4.5, Leading zero omitted, Abs format (unit mm)*
G04 Created by KiCad (PCBNEW 7.0.10) date 2024-05-08 17:12:16*
%MOMM*%
%LPD*%
G01*
G04 APERTURE LIST*
%ADD10C,0.100000*%
%ADD11C,0.200000*%
G04 APERTURE END LIST*
D10*
X13970000Y-6350000D02*
X11684000Y-6350000D01*
X14224000Y-8636000D02*
X14224000Y-6604000D01*
X11684000Y-8890000D02*
X13970000Y-8890000D01*
X11430000Y-6604000D02*
X11430000Y-8636000D01*
X11430000Y-8636000D02*
G75*
G03*
X11684000Y-8890000I254000J0D01*
G01*
X11684000Y-6350000D02*
G75*
G03*
X11430000Y-6604000I0J-254000D01*
G01*
X13970000Y-8890000D02*
G75*
G03*
X14224000Y-8636000I0J254000D01*
G01*
X14224000Y-6604000D02*
G75*
G03*
X13970000Y-6350000I-254000J0D01*
G01*
D11*
X11685777Y-9206484D02*
X11685777Y-9006484D01*
X11685777Y-9006484D02*
X11733396Y-9006484D01*
X11733396Y-9006484D02*
X11761967Y-9016008D01*
X11761967Y-9016008D02*
X11781015Y-9035055D01*
X11781015Y-9035055D02*
X11790539Y-9054103D01*
X11790539Y-9054103D02*
X11800062Y-9092198D01*
X11800062Y-9092198D02*
X11800062Y-9120770D01*
X11800062Y-9120770D02*
X11790539Y-9158865D01*
X11790539Y-9158865D02*
X11781015Y-9177912D01*
X11781015Y-9177912D02*
X11761967Y-9196960D01*
X11761967Y-9196960D02*
X11733396Y-9206484D01*
X11733396Y-9206484D02*
X11685777Y-9206484D01*
X11885777Y-9206484D02*
X11885777Y-9073150D01*
X11885777Y-9111246D02*
X11895301Y-9092198D01*
X11895301Y-9092198D02*
X11904824Y-9082674D01*
X11904824Y-9082674D02*
X11923872Y-9073150D01*
X11923872Y-9073150D02*
X11942920Y-9073150D01*
X12009586Y-9206484D02*
X12009586Y-9073150D01*
X12009586Y-9006484D02*
X12000062Y-9016008D01*
X12000062Y-9016008D02*
X12009586Y-9025531D01*
X12009586Y-9025531D02*
X12019110Y-9016008D01*
X12019110Y-9016008D02*
X12009586Y-9006484D01*
X12009586Y-9006484D02*
X12009586Y-9025531D01*
X12133396Y-9206484D02*
X12114348Y-9196960D01*
X12114348Y-9196960D02*
X12104824Y-9177912D01*
X12104824Y-9177912D02*
X12104824Y-9006484D01*
X12238158Y-9206484D02*
X12219110Y-9196960D01*
X12219110Y-9196960D02*
X12209586Y-9177912D01*
X12209586Y-9177912D02*
X12209586Y-9006484D01*
X12466729Y-9206484D02*
X12466729Y-9006484D01*
X12466729Y-9006484D02*
X12533396Y-9149341D01*
X12533396Y-9149341D02*
X12600062Y-9006484D01*
X12600062Y-9006484D02*
X12600062Y-9206484D01*
X12781015Y-9206484D02*
X12781015Y-9101722D01*
X12781015Y-9101722D02*
X12771491Y-9082674D01*
X12771491Y-9082674D02*
X12752443Y-9073150D01*
X12752443Y-9073150D02*
X12714348Y-9073150D01*
X12714348Y-9073150D02*
X12695301Y-9082674D01*
X12781015Y-9196960D02*
X12761967Y-9206484D01*
X12761967Y-9206484D02*
X12714348Y-9206484D01*
X12714348Y-9206484D02*
X12695301Y-9196960D01*
X12695301Y-9196960D02*
X12685777Y-9177912D01*
X12685777Y-9177912D02*
X12685777Y-9158865D01*
X12685777Y-9158865D02*
X12695301Y-9139817D01*
X12695301Y-9139817D02*
X12714348Y-9130293D01*
X12714348Y-9130293D02*
X12761967Y-9130293D01*
X12761967Y-9130293D02*
X12781015Y-9120770D01*
X12876253Y-9073150D02*
X12876253Y-9273150D01*
X12876253Y-9082674D02*
X12895301Y-9073150D01*
X12895301Y-9073150D02*
X12933396Y-9073150D01*
X12933396Y-9073150D02*
X12952443Y-9082674D01*
X12952443Y-9082674D02*
X12961967Y-9092198D01*
X12961967Y-9092198D02*
X12971491Y-9111246D01*
X12971491Y-9111246D02*
X12971491Y-9168389D01*
X12971491Y-9168389D02*
X12961967Y-9187436D01*
X12961967Y-9187436D02*
X12952443Y-9196960D01*
X12952443Y-9196960D02*
X12933396Y-9206484D01*
X12933396Y-9206484D02*
X12895301Y-9206484D01*
X12895301Y-9206484D02*
X12876253Y-9196960D01*
X13057205Y-9187436D02*
X13066729Y-9196960D01*
X13066729Y-9196960D02*
X13057205Y-9206484D01*
X13057205Y-9206484D02*
X13047682Y-9196960D01*
X13047682Y-9196960D02*
X13057205Y-9187436D01*
X13057205Y-9187436D02*
X13057205Y-9206484D01*
X13057205Y-9082674D02*
X13066729Y-9092198D01*
X13066729Y-9092198D02*
X13057205Y-9101722D01*
X13057205Y-9101722D02*
X13047682Y-9092198D01*
X13047682Y-9092198D02*
X13057205Y-9082674D01*
X13057205Y-9082674D02*
X13057205Y-9101722D01*
M02*
