%TF.GenerationSoftware,KiCad,Pcbnew,7.0.10*%
%TF.CreationDate,2024-05-08T17:12:13+09:00*%
%TF.ProjectId,CANFD_Module_withMCP2517FD&MCP2562FD,43414e46-445f-44d6-9f64-756c655f7769,rev?*%
%TF.SameCoordinates,Original*%
%TF.FileFunction,Soldermask,Top*%
%TF.FilePolarity,Negative*%
%FSLAX46Y46*%
G04 Gerber Fmt 4.6, Leading zero omitted, Abs format (unit mm)*
G04 Created by KiCad (PCBNEW 7.0.10) date 2024-05-08 17:12:13*
%MOMM*%
%LPD*%
G01*
G04 APERTURE LIST*
G04 Aperture macros list*
%AMRoundRect*
0 Rectangle with rounded corners*
0 $1 Rounding radius*
0 $2 $3 $4 $5 $6 $7 $8 $9 X,Y pos of 4 corners*
0 Add a 4 corners polygon primitive as box body*
4,1,4,$2,$3,$4,$5,$6,$7,$8,$9,$2,$3,0*
0 Add four circle primitives for the rounded corners*
1,1,$1+$1,$2,$3*
1,1,$1+$1,$4,$5*
1,1,$1+$1,$6,$7*
1,1,$1+$1,$8,$9*
0 Add four rect primitives between the rounded corners*
20,1,$1+$1,$2,$3,$4,$5,0*
20,1,$1+$1,$4,$5,$6,$7,0*
20,1,$1+$1,$6,$7,$8,$9,0*
20,1,$1+$1,$8,$9,$2,$3,0*%
G04 Aperture macros list end*
%ADD10RoundRect,0.200000X0.200000X0.275000X-0.200000X0.275000X-0.200000X-0.275000X0.200000X-0.275000X0*%
%ADD11R,1.500000X2.000000*%
%ADD12R,3.800000X2.000000*%
%ADD13R,0.650000X1.560000*%
%ADD14RoundRect,0.150000X0.825000X0.150000X-0.825000X0.150000X-0.825000X-0.150000X0.825000X-0.150000X0*%
%ADD15RoundRect,0.150000X-0.825000X-0.150000X0.825000X-0.150000X0.825000X0.150000X-0.825000X0.150000X0*%
%ADD16R,1.200000X1.400000*%
%ADD17RoundRect,0.200000X-0.275000X0.200000X-0.275000X-0.200000X0.275000X-0.200000X0.275000X0.200000X0*%
%ADD18R,1.700000X1.700000*%
%ADD19O,1.700000X1.700000*%
%ADD20RoundRect,0.225000X-0.225000X-0.250000X0.225000X-0.250000X0.225000X0.250000X-0.225000X0.250000X0*%
%ADD21RoundRect,0.225000X-0.250000X0.225000X-0.250000X-0.225000X0.250000X-0.225000X0.250000X0.225000X0*%
%ADD22RoundRect,0.225000X0.225000X0.250000X-0.225000X0.250000X-0.225000X-0.250000X0.225000X-0.250000X0*%
G04 APERTURE END LIST*
D10*
%TO.C,R2*%
X128841000Y-71247000D03*
X127191000Y-71247000D03*
%TD*%
D11*
%TO.C,U4*%
X136412000Y-81178000D03*
D12*
X134112000Y-87478000D03*
D11*
X134112000Y-81178000D03*
X131812000Y-81178000D03*
%TD*%
D13*
%TO.C,U3*%
X127066000Y-77296000D03*
X128016000Y-77296000D03*
X128966000Y-77296000D03*
X128966000Y-74596000D03*
X127066000Y-74596000D03*
%TD*%
D14*
%TO.C,U2*%
X124903000Y-80010000D03*
X124903000Y-78740000D03*
X124903000Y-77470000D03*
X124903000Y-76200000D03*
X124903000Y-74930000D03*
X124903000Y-73660000D03*
X124903000Y-72390000D03*
X119953000Y-72390000D03*
X119953000Y-73660000D03*
X119953000Y-74930000D03*
X119953000Y-76200000D03*
X119953000Y-77470000D03*
X119953000Y-78740000D03*
X119953000Y-80010000D03*
%TD*%
D15*
%TO.C,U1*%
X131637000Y-71755000D03*
X131637000Y-73025000D03*
X131637000Y-74295000D03*
X131637000Y-75565000D03*
X136587000Y-75565000D03*
X136587000Y-74295000D03*
X136587000Y-73025000D03*
X136587000Y-71755000D03*
%TD*%
D16*
%TO.C,SW1*%
X125770000Y-69256000D03*
X125770000Y-64856000D03*
X128270000Y-69256000D03*
X128270000Y-64856000D03*
X130770000Y-69256000D03*
X130770000Y-64856000D03*
%TD*%
D17*
%TO.C,R1*%
X134112000Y-68517000D03*
X134112000Y-70167000D03*
%TD*%
D18*
%TO.C,J2*%
X139700000Y-71125000D03*
D19*
X139700000Y-73665000D03*
X139700000Y-76205000D03*
X139700000Y-78745000D03*
X139700000Y-81285000D03*
%TD*%
%TO.C,J1*%
X116840000Y-81285000D03*
X116840000Y-78745000D03*
X116840000Y-76205000D03*
X116840000Y-73665000D03*
D18*
X116840000Y-71125000D03*
%TD*%
D20*
%TO.C,C5*%
X134353000Y-78994000D03*
X135903000Y-78994000D03*
%TD*%
D21*
%TO.C,C4*%
X129667000Y-81394000D03*
X129667000Y-82944000D03*
%TD*%
D22*
%TO.C,C3*%
X133109000Y-77216000D03*
X131559000Y-77216000D03*
%TD*%
D20*
%TO.C,C2*%
X120129000Y-81534000D03*
X121679000Y-81534000D03*
%TD*%
D22*
%TO.C,C1*%
X128791000Y-72771000D03*
X127241000Y-72771000D03*
%TD*%
M02*
