%TF.GenerationSoftware,KiCad,Pcbnew,7.0.10*%
%TF.CreationDate,2024-05-08T17:12:12+09:00*%
%TF.ProjectId,CANFD_Module_withMCP2517FD&MCP2562FD,43414e46-445f-44d6-9f64-756c655f7769,rev?*%
%TF.SameCoordinates,Original*%
%TF.FileFunction,Copper,L1,Top*%
%TF.FilePolarity,Positive*%
%FSLAX46Y46*%
G04 Gerber Fmt 4.6, Leading zero omitted, Abs format (unit mm)*
G04 Created by KiCad (PCBNEW 7.0.10) date 2024-05-08 17:12:12*
%MOMM*%
%LPD*%
G01*
G04 APERTURE LIST*
G04 Aperture macros list*
%AMRoundRect*
0 Rectangle with rounded corners*
0 $1 Rounding radius*
0 $2 $3 $4 $5 $6 $7 $8 $9 X,Y pos of 4 corners*
0 Add a 4 corners polygon primitive as box body*
4,1,4,$2,$3,$4,$5,$6,$7,$8,$9,$2,$3,0*
0 Add four circle primitives for the rounded corners*
1,1,$1+$1,$2,$3*
1,1,$1+$1,$4,$5*
1,1,$1+$1,$6,$7*
1,1,$1+$1,$8,$9*
0 Add four rect primitives between the rounded corners*
20,1,$1+$1,$2,$3,$4,$5,0*
20,1,$1+$1,$4,$5,$6,$7,0*
20,1,$1+$1,$6,$7,$8,$9,0*
20,1,$1+$1,$8,$9,$2,$3,0*%
G04 Aperture macros list end*
%TA.AperFunction,SMDPad,CuDef*%
%ADD10RoundRect,0.200000X0.200000X0.275000X-0.200000X0.275000X-0.200000X-0.275000X0.200000X-0.275000X0*%
%TD*%
%TA.AperFunction,SMDPad,CuDef*%
%ADD11R,1.500000X2.000000*%
%TD*%
%TA.AperFunction,SMDPad,CuDef*%
%ADD12R,3.800000X2.000000*%
%TD*%
%TA.AperFunction,SMDPad,CuDef*%
%ADD13R,0.650000X1.560000*%
%TD*%
%TA.AperFunction,SMDPad,CuDef*%
%ADD14RoundRect,0.150000X0.825000X0.150000X-0.825000X0.150000X-0.825000X-0.150000X0.825000X-0.150000X0*%
%TD*%
%TA.AperFunction,SMDPad,CuDef*%
%ADD15RoundRect,0.150000X-0.825000X-0.150000X0.825000X-0.150000X0.825000X0.150000X-0.825000X0.150000X0*%
%TD*%
%TA.AperFunction,SMDPad,CuDef*%
%ADD16R,1.200000X1.400000*%
%TD*%
%TA.AperFunction,SMDPad,CuDef*%
%ADD17RoundRect,0.200000X-0.275000X0.200000X-0.275000X-0.200000X0.275000X-0.200000X0.275000X0.200000X0*%
%TD*%
%TA.AperFunction,ComponentPad*%
%ADD18R,1.700000X1.700000*%
%TD*%
%TA.AperFunction,ComponentPad*%
%ADD19O,1.700000X1.700000*%
%TD*%
%TA.AperFunction,SMDPad,CuDef*%
%ADD20RoundRect,0.225000X-0.225000X-0.250000X0.225000X-0.250000X0.225000X0.250000X-0.225000X0.250000X0*%
%TD*%
%TA.AperFunction,SMDPad,CuDef*%
%ADD21RoundRect,0.225000X-0.250000X0.225000X-0.250000X-0.225000X0.250000X-0.225000X0.250000X0.225000X0*%
%TD*%
%TA.AperFunction,SMDPad,CuDef*%
%ADD22RoundRect,0.225000X0.225000X0.250000X-0.225000X0.250000X-0.225000X-0.250000X0.225000X-0.250000X0*%
%TD*%
%TA.AperFunction,ViaPad*%
%ADD23C,0.800000*%
%TD*%
%TA.AperFunction,Conductor*%
%ADD24C,0.250000*%
%TD*%
%TA.AperFunction,Conductor*%
%ADD25C,1.000000*%
%TD*%
G04 APERTURE END LIST*
D10*
%TO.P,R2,1*%
%TO.N,+3V3*%
X128841000Y-71247000D03*
%TO.P,R2,2*%
%TO.N,INT*%
X127191000Y-71247000D03*
%TD*%
D11*
%TO.P,U4,1,GND*%
%TO.N,GND*%
X136412000Y-81178000D03*
D12*
%TO.P,U4,2,VO*%
%TO.N,+3V3*%
X134112000Y-87478000D03*
D11*
X134112000Y-81178000D03*
%TO.P,U4,3,VI*%
%TO.N,+5V*%
X131812000Y-81178000D03*
%TD*%
D13*
%TO.P,U3,1,GND*%
%TO.N,GND*%
X127066000Y-77296000D03*
%TO.P,U3,2,NC*%
%TO.N,unconnected-(U3-NC-Pad2)*%
X128016000Y-77296000D03*
%TO.P,U3,3,OE/~{ST}/NC*%
%TO.N,unconnected-(U3-OE{slash}~{ST}{slash}NC-Pad3)*%
X128966000Y-77296000D03*
%TO.P,U3,4,VDD*%
%TO.N,+3V3*%
X128966000Y-74596000D03*
%TO.P,U3,5,OUT*%
%TO.N,Net-(U2-OSC1)*%
X127066000Y-74596000D03*
%TD*%
D14*
%TO.P,U2,1,TXCAN*%
%TO.N,CANTX*%
X124903000Y-80010000D03*
%TO.P,U2,2,RXCAN*%
%TO.N,CANRX*%
X124903000Y-78740000D03*
%TO.P,U2,3,CLKO/SOF*%
%TO.N,unconnected-(U2-CLKO{slash}SOF-Pad3)*%
X124903000Y-77470000D03*
%TO.P,U2,4,~{INT}*%
%TO.N,INT*%
X124903000Y-76200000D03*
%TO.P,U2,5,OSC2*%
%TO.N,unconnected-(U2-OSC2-Pad5)*%
X124903000Y-74930000D03*
%TO.P,U2,6,OSC1*%
%TO.N,Net-(U2-OSC1)*%
X124903000Y-73660000D03*
%TO.P,U2,7,VSS*%
%TO.N,GND*%
X124903000Y-72390000D03*
%TO.P,U2,8,~{INT1}/GPIO1*%
%TO.N,unconnected-(U2-~{INT1}{slash}GPIO1-Pad8)*%
X119953000Y-72390000D03*
%TO.P,U2,9,~{INT0}/GPIO0/XSTBY*%
%TO.N,unconnected-(U2-~{INT0}{slash}GPIO0{slash}XSTBY-Pad9)*%
X119953000Y-73660000D03*
%TO.P,U2,10,SCK*%
%TO.N,SPI_SCK*%
X119953000Y-74930000D03*
%TO.P,U2,11,SDI*%
%TO.N,SPI_MOSI*%
X119953000Y-76200000D03*
%TO.P,U2,12,SDO*%
%TO.N,SPI_MISO*%
X119953000Y-77470000D03*
%TO.P,U2,13,nCS*%
%TO.N,SPI_CS*%
X119953000Y-78740000D03*
%TO.P,U2,14,VDD*%
%TO.N,+3V3*%
X119953000Y-80010000D03*
%TD*%
D15*
%TO.P,U1,1,TXD*%
%TO.N,CANTX*%
X131637000Y-71755000D03*
%TO.P,U1,2,VSS*%
%TO.N,GND*%
X131637000Y-73025000D03*
%TO.P,U1,3,VDD*%
%TO.N,+5V*%
X131637000Y-74295000D03*
%TO.P,U1,4,RXD*%
%TO.N,CANRX*%
X131637000Y-75565000D03*
%TO.P,U1,5,Vio*%
%TO.N,+3V3*%
X136587000Y-75565000D03*
%TO.P,U1,6,CANL*%
%TO.N,CANL*%
X136587000Y-74295000D03*
%TO.P,U1,7,CANH*%
%TO.N,CANH*%
X136587000Y-73025000D03*
%TO.P,U1,8,STBY*%
%TO.N,GND*%
X136587000Y-71755000D03*
%TD*%
D16*
%TO.P,SW1,1,A*%
%TO.N,CANH*%
X125770000Y-69256000D03*
X125770000Y-64856000D03*
%TO.P,SW1,2,B*%
%TO.N,Net-(SW1A-B)*%
X128270000Y-69256000D03*
X128270000Y-64856000D03*
%TO.P,SW1,3,C*%
%TO.N,unconnected-(SW1A-C-Pad3)*%
X130770000Y-69256000D03*
X130770000Y-64856000D03*
%TD*%
D17*
%TO.P,R1,1*%
%TO.N,Net-(SW1A-B)*%
X134112000Y-68517000D03*
%TO.P,R1,2*%
%TO.N,CANL*%
X134112000Y-70167000D03*
%TD*%
D18*
%TO.P,J2,1,Pin_1*%
%TO.N,CANH*%
X139700000Y-71125000D03*
D19*
%TO.P,J2,2,Pin_2*%
%TO.N,CANL*%
X139700000Y-73665000D03*
%TO.P,J2,3,Pin_3*%
%TO.N,unconnected-(J2-Pin_3-Pad3)*%
X139700000Y-76205000D03*
%TO.P,J2,4,Pin_4*%
%TO.N,+5V*%
X139700000Y-78745000D03*
%TO.P,J2,5,Pin_5*%
%TO.N,GND*%
X139700000Y-81285000D03*
%TD*%
%TO.P,J1,5,Pin_5*%
%TO.N,SPI_CS*%
X116840000Y-81285000D03*
%TO.P,J1,4,Pin_4*%
%TO.N,SPI_MISO*%
X116840000Y-78745000D03*
%TO.P,J1,3,Pin_3*%
%TO.N,SPI_MOSI*%
X116840000Y-76205000D03*
%TO.P,J1,2,Pin_2*%
%TO.N,SPI_SCK*%
X116840000Y-73665000D03*
D18*
%TO.P,J1,1,Pin_1*%
%TO.N,INT*%
X116840000Y-71125000D03*
%TD*%
D20*
%TO.P,C5,1*%
%TO.N,+3V3*%
X134353000Y-78994000D03*
%TO.P,C5,2*%
%TO.N,GND*%
X135903000Y-78994000D03*
%TD*%
D21*
%TO.P,C4,1*%
%TO.N,+5V*%
X129667000Y-81394000D03*
%TO.P,C4,2*%
%TO.N,GND*%
X129667000Y-82944000D03*
%TD*%
D22*
%TO.P,C3,1*%
%TO.N,+5V*%
X133109000Y-77216000D03*
%TO.P,C3,2*%
%TO.N,GND*%
X131559000Y-77216000D03*
%TD*%
D20*
%TO.P,C2,1*%
%TO.N,+3V3*%
X120129000Y-81534000D03*
%TO.P,C2,2*%
%TO.N,GND*%
X121679000Y-81534000D03*
%TD*%
D22*
%TO.P,C1,1*%
%TO.N,+3V3*%
X128791000Y-72771000D03*
%TO.P,C1,2*%
%TO.N,GND*%
X127241000Y-72771000D03*
%TD*%
D23*
%TO.N,CANTX*%
X130132000Y-79465000D03*
X130302000Y-72009000D03*
%TO.N,+5V*%
X131826000Y-79756000D03*
X132334000Y-79248000D03*
%TO.N,+3V3*%
X128492000Y-83820000D03*
X128492000Y-82889997D03*
X129032000Y-75438000D03*
X128966000Y-74596000D03*
X128492000Y-81959994D03*
%TO.N,+5V*%
X132842000Y-78740000D03*
%TD*%
D24*
%TO.N,CANH*%
X125770000Y-68413000D02*
X125770000Y-69256000D01*
X126492000Y-67691000D02*
X125770000Y-68413000D01*
X131155000Y-67691000D02*
X126492000Y-67691000D01*
X132706000Y-69242000D02*
X131155000Y-67691000D01*
X134912000Y-69743996D02*
X134410004Y-69242000D01*
X134410004Y-69242000D02*
X132706000Y-69242000D01*
X134912000Y-72682000D02*
X134912000Y-69743996D01*
X135255000Y-73025000D02*
X134912000Y-72682000D01*
X136587000Y-73025000D02*
X135255000Y-73025000D01*
%TO.N,CANL*%
X135612001Y-74295000D02*
X136587000Y-74295000D01*
X134112000Y-72794999D02*
X135612001Y-74295000D01*
X134112000Y-70167000D02*
X134112000Y-72794999D01*
%TO.N,Net-(SW1A-B)*%
X133477000Y-66421000D02*
X134112000Y-67056000D01*
X129286000Y-66421000D02*
X133477000Y-66421000D01*
X128270000Y-65405000D02*
X129286000Y-66421000D01*
X128270000Y-64856000D02*
X128270000Y-65405000D01*
X134112000Y-67056000D02*
X134112000Y-68517000D01*
%TO.N,CANH*%
X137800000Y-73025000D02*
X139700000Y-71125000D01*
X136587000Y-73025000D02*
X137800000Y-73025000D01*
%TO.N,CANL*%
X138430000Y-74295000D02*
X136587000Y-74295000D01*
X139060000Y-73665000D02*
X138430000Y-74295000D01*
X139700000Y-73665000D02*
X139060000Y-73665000D01*
%TO.N,CANTX*%
X126355562Y-79638438D02*
X125984000Y-80010000D01*
X125984000Y-80010000D02*
X124903000Y-80010000D01*
X130132000Y-79465000D02*
X129958562Y-79638438D01*
X129958562Y-79638438D02*
X126355562Y-79638438D01*
X130556000Y-71755000D02*
X131637000Y-71755000D01*
X130302000Y-72009000D02*
X130556000Y-71755000D01*
%TO.N,CANRX*%
X130556000Y-75946000D02*
X130556000Y-78232000D01*
X130048000Y-78740000D02*
X124903000Y-78740000D01*
X131637000Y-75565000D02*
X130937000Y-75565000D01*
X130937000Y-75565000D02*
X130556000Y-75946000D01*
X130556000Y-78232000D02*
X130048000Y-78740000D01*
D25*
%TO.N,+3V3*%
X128492000Y-81959994D02*
X128492000Y-83820000D01*
X128492000Y-87446000D02*
X128524000Y-87478000D01*
X128492000Y-83820000D02*
X128492000Y-87446000D01*
D24*
%TO.N,INT*%
X122428000Y-71125000D02*
X127069000Y-71125000D01*
X122428000Y-75565000D02*
X122428000Y-71125000D01*
X116840000Y-71125000D02*
X122428000Y-71125000D01*
X123063000Y-76200000D02*
X122428000Y-75565000D01*
X124903000Y-76200000D02*
X123063000Y-76200000D01*
%TO.N,Net-(U2-OSC1)*%
X126130000Y-73660000D02*
X127066000Y-74596000D01*
X124903000Y-73660000D02*
X126130000Y-73660000D01*
%TO.N,SPI_CS*%
X116840000Y-81285000D02*
X119385000Y-78740000D01*
X119385000Y-78740000D02*
X119953000Y-78740000D01*
%TO.N,SPI_MISO*%
X118115000Y-77470000D02*
X119953000Y-77470000D01*
X116840000Y-78745000D02*
X118115000Y-77470000D01*
%TO.N,SPI_MOSI*%
X119948000Y-76205000D02*
X119953000Y-76200000D01*
X116840000Y-76205000D02*
X119948000Y-76205000D01*
%TO.N,SPI_SCK*%
X118105000Y-74930000D02*
X119953000Y-74930000D01*
X116840000Y-73665000D02*
X118105000Y-74930000D01*
D25*
%TO.N,+3V3*%
X128841000Y-71247000D02*
X128841000Y-74950238D01*
X128524000Y-87478000D02*
X134112000Y-87478000D01*
X121133000Y-87478000D02*
X128524000Y-87478000D01*
X128966000Y-74596000D02*
X128966000Y-75075238D01*
X120129000Y-86474000D02*
X121133000Y-87478000D01*
X120129000Y-81534000D02*
X120129000Y-86474000D01*
X119953000Y-81358000D02*
X120129000Y-81534000D01*
X119953000Y-80010000D02*
X119953000Y-81358000D01*
%TO.N,+5V*%
X131710000Y-81280000D02*
X131812000Y-81178000D01*
X129807000Y-81280000D02*
X131710000Y-81280000D01*
X131812000Y-79770000D02*
X132842000Y-78740000D01*
X131812000Y-81178000D02*
X131812000Y-79770000D01*
X133312000Y-77013000D02*
X133109000Y-77216000D01*
X133312000Y-74765000D02*
X133312000Y-77013000D01*
X132842000Y-74295000D02*
X133312000Y-74765000D01*
X131637000Y-74295000D02*
X132842000Y-74295000D01*
X132842000Y-77483000D02*
X133109000Y-77216000D01*
X132842000Y-78740000D02*
X132842000Y-77483000D01*
%TO.N,+3V3*%
X134353000Y-80937000D02*
X134112000Y-81178000D01*
X134353000Y-78994000D02*
X134353000Y-80937000D01*
X134353000Y-77799000D02*
X134353000Y-78994000D01*
X136587000Y-75565000D02*
X134353000Y-77799000D01*
D24*
X128841000Y-74471000D02*
X128966000Y-74596000D01*
%TO.N,INT*%
X127069000Y-71125000D02*
X127191000Y-71247000D01*
%TD*%
M02*
