%TF.GenerationSoftware,KiCad,Pcbnew,7.0.10*%
%TF.CreationDate,2024-05-08T17:12:12+09:00*%
%TF.ProjectId,CANFD_Module_withMCP2517FD&MCP2562FD,43414e46-445f-44d6-9f64-756c655f7769,rev?*%
%TF.SameCoordinates,Original*%
%TF.FileFunction,Copper,L2,Bot*%
%TF.FilePolarity,Positive*%
%FSLAX46Y46*%
G04 Gerber Fmt 4.6, Leading zero omitted, Abs format (unit mm)*
G04 Created by KiCad (PCBNEW 7.0.10) date 2024-05-08 17:12:12*
%MOMM*%
%LPD*%
G01*
G04 APERTURE LIST*
%TA.AperFunction,ComponentPad*%
%ADD10R,1.700000X1.700000*%
%TD*%
%TA.AperFunction,ComponentPad*%
%ADD11O,1.700000X1.700000*%
%TD*%
%TA.AperFunction,ViaPad*%
%ADD12C,0.800000*%
%TD*%
%TA.AperFunction,Conductor*%
%ADD13C,0.250000*%
%TD*%
%TA.AperFunction,Conductor*%
%ADD14C,1.000000*%
%TD*%
G04 APERTURE END LIST*
D10*
%TO.P,J2,1,Pin_1*%
%TO.N,CANH*%
X139700000Y-71125000D03*
D11*
%TO.P,J2,2,Pin_2*%
%TO.N,CANL*%
X139700000Y-73665000D03*
%TO.P,J2,3,Pin_3*%
%TO.N,unconnected-(J2-Pin_3-Pad3)*%
X139700000Y-76205000D03*
%TO.P,J2,4,Pin_4*%
%TO.N,+5V*%
X139700000Y-78745000D03*
%TO.P,J2,5,Pin_5*%
%TO.N,GND*%
X139700000Y-81285000D03*
%TD*%
%TO.P,J1,5,Pin_5*%
%TO.N,SPI_CS*%
X116840000Y-81285000D03*
%TO.P,J1,4,Pin_4*%
%TO.N,SPI_MISO*%
X116840000Y-78745000D03*
%TO.P,J1,3,Pin_3*%
%TO.N,SPI_MOSI*%
X116840000Y-76205000D03*
%TO.P,J1,2,Pin_2*%
%TO.N,SPI_SCK*%
X116840000Y-73665000D03*
D10*
%TO.P,J1,1,Pin_1*%
%TO.N,INT*%
X116840000Y-71125000D03*
%TD*%
D12*
%TO.N,CANTX*%
X130132000Y-79465000D03*
X130302000Y-72009000D03*
%TO.N,+5V*%
X131826000Y-79756000D03*
X132334000Y-79248000D03*
%TO.N,+3V3*%
X128492000Y-83820000D03*
X128492000Y-82889997D03*
X129032000Y-75438000D03*
X128966000Y-74596000D03*
X128492000Y-81959994D03*
%TO.N,+5V*%
X132842000Y-78740000D03*
%TD*%
D13*
%TO.N,CANTX*%
X130317259Y-79279741D02*
X130317259Y-73040259D01*
X130132000Y-79465000D02*
X130317259Y-79279741D01*
X130317259Y-72024259D02*
X130302000Y-72009000D01*
X130317259Y-73040259D02*
X130317259Y-72024259D01*
D14*
%TO.N,+3V3*%
X129032000Y-79502000D02*
X129032000Y-75438000D01*
X128492000Y-80042000D02*
X129032000Y-79502000D01*
X128492000Y-81959994D02*
X128492000Y-80042000D01*
X128492000Y-81959994D02*
X128492000Y-82889997D01*
X128492000Y-82889997D02*
X128524000Y-82921997D01*
X128524000Y-82921997D02*
X128524000Y-83788000D01*
X128524000Y-83788000D02*
X128492000Y-83820000D01*
%TO.N,+5V*%
X132334000Y-79248000D02*
X131826000Y-79756000D01*
X132842000Y-78740000D02*
X132334000Y-79248000D01*
%TO.N,+3V3*%
X129032000Y-75438000D02*
X129032000Y-74662000D01*
X129032000Y-74662000D02*
X128966000Y-74596000D01*
%TO.N,+5V*%
X139700000Y-78745000D02*
X132847000Y-78745000D01*
%TD*%
%TA.AperFunction,Conductor*%
%TO.N,GND*%
G36*
X139703736Y-63800726D02*
G01*
X139962457Y-63816375D01*
X139977320Y-63818180D01*
X140228575Y-63864225D01*
X140243097Y-63867804D01*
X140486990Y-63943803D01*
X140500967Y-63949104D01*
X140733915Y-64053946D01*
X140747161Y-64060898D01*
X140965768Y-64193051D01*
X140978079Y-64201549D01*
X141179161Y-64359086D01*
X141190369Y-64369016D01*
X141370983Y-64549630D01*
X141380913Y-64560838D01*
X141538446Y-64761914D01*
X141546952Y-64774237D01*
X141679098Y-64992832D01*
X141686057Y-65006091D01*
X141790893Y-65239028D01*
X141796199Y-65253018D01*
X141872191Y-65496886D01*
X141875774Y-65511424D01*
X141921819Y-65762679D01*
X141923624Y-65777544D01*
X141939274Y-66036263D01*
X141939500Y-66043750D01*
X141939500Y-86356249D01*
X141939274Y-86363736D01*
X141923624Y-86622455D01*
X141921819Y-86637320D01*
X141875774Y-86888575D01*
X141872191Y-86903113D01*
X141796203Y-87146970D01*
X141790893Y-87160971D01*
X141686057Y-87393908D01*
X141679098Y-87407167D01*
X141546952Y-87625762D01*
X141538446Y-87638085D01*
X141380913Y-87839161D01*
X141370983Y-87850369D01*
X141190369Y-88030983D01*
X141179161Y-88040913D01*
X140978085Y-88198446D01*
X140965762Y-88206952D01*
X140747167Y-88339098D01*
X140733908Y-88346057D01*
X140500971Y-88450893D01*
X140486975Y-88456200D01*
X140243113Y-88532191D01*
X140228575Y-88535774D01*
X139977320Y-88581819D01*
X139962455Y-88583624D01*
X139703736Y-88599274D01*
X139696249Y-88599500D01*
X116843751Y-88599500D01*
X116836264Y-88599274D01*
X116577544Y-88583624D01*
X116562679Y-88581819D01*
X116311424Y-88535774D01*
X116296890Y-88532192D01*
X116053018Y-88456199D01*
X116039028Y-88450893D01*
X115806091Y-88346057D01*
X115792832Y-88339098D01*
X115574237Y-88206952D01*
X115561914Y-88198446D01*
X115360838Y-88040913D01*
X115349630Y-88030983D01*
X115169016Y-87850369D01*
X115159086Y-87839161D01*
X115001553Y-87638085D01*
X114993051Y-87625768D01*
X114860898Y-87407161D01*
X114853946Y-87393915D01*
X114749104Y-87160967D01*
X114743803Y-87146990D01*
X114667804Y-86903097D01*
X114664225Y-86888575D01*
X114618180Y-86637320D01*
X114616375Y-86622455D01*
X114600726Y-86363736D01*
X114600500Y-86356249D01*
X114600500Y-83777394D01*
X127787642Y-83777394D01*
X127797914Y-83947196D01*
X127848522Y-84109606D01*
X127905189Y-84203345D01*
X127936530Y-84255188D01*
X128056811Y-84375469D01*
X128056813Y-84375470D01*
X128056815Y-84375472D01*
X128202394Y-84463478D01*
X128364804Y-84514086D01*
X128534606Y-84524358D01*
X128701932Y-84493695D01*
X128857057Y-84423878D01*
X128957367Y-84345290D01*
X129001730Y-84300925D01*
X129007132Y-84295839D01*
X129052183Y-84255929D01*
X129086362Y-84206411D01*
X129090789Y-84200396D01*
X129127878Y-84153056D01*
X129132037Y-84143813D01*
X129143061Y-84124268D01*
X129148818Y-84115930D01*
X129170145Y-84059694D01*
X129173013Y-84052770D01*
X129197693Y-83997936D01*
X129197693Y-83997934D01*
X129197695Y-83997931D01*
X129199522Y-83987959D01*
X129205546Y-83966347D01*
X129209140Y-83956872D01*
X129216387Y-83897184D01*
X129217514Y-83889777D01*
X129228358Y-83830606D01*
X129224726Y-83770565D01*
X129224500Y-83763078D01*
X129224500Y-82946917D01*
X129224726Y-82939429D01*
X129228358Y-82879391D01*
X129217514Y-82820218D01*
X129216387Y-82812812D01*
X129216128Y-82810686D01*
X129209140Y-82753125D01*
X129205548Y-82743653D01*
X129199521Y-82722031D01*
X129196343Y-82704687D01*
X129196774Y-82704608D01*
X129192500Y-82676523D01*
X129192500Y-80383518D01*
X129212185Y-80316479D01*
X129228815Y-80295841D01*
X129509731Y-80014924D01*
X129515151Y-80009822D01*
X129560183Y-79969929D01*
X129570389Y-79955141D01*
X129624668Y-79911152D01*
X129694116Y-79903489D01*
X129747926Y-79927204D01*
X129829157Y-79989535D01*
X129829158Y-79989535D01*
X129829159Y-79989536D01*
X129975238Y-80050044D01*
X130046547Y-80059432D01*
X130131999Y-80070682D01*
X130132000Y-80070682D01*
X130132001Y-80070682D01*
X130189075Y-80063168D01*
X130288762Y-80050044D01*
X130434841Y-79989536D01*
X130560282Y-79893282D01*
X130656536Y-79767841D01*
X130679088Y-79713395D01*
X131121642Y-79713395D01*
X131122056Y-79720231D01*
X131131914Y-79883196D01*
X131182522Y-80045606D01*
X131222295Y-80111399D01*
X131270530Y-80191188D01*
X131390811Y-80311469D01*
X131390813Y-80311470D01*
X131390815Y-80311472D01*
X131536394Y-80399478D01*
X131698804Y-80450086D01*
X131868606Y-80460358D01*
X132035932Y-80429695D01*
X132191057Y-80359878D01*
X132291367Y-80281290D01*
X132793993Y-79778661D01*
X132794002Y-79778654D01*
X132799364Y-79773291D01*
X132799367Y-79773290D01*
X133090838Y-79481817D01*
X133152159Y-79448334D01*
X133178518Y-79445500D01*
X138857265Y-79445500D01*
X138924304Y-79465185D01*
X138949119Y-79487274D01*
X138949287Y-79487107D01*
X138952165Y-79489985D01*
X138953114Y-79490830D01*
X138953590Y-79491410D01*
X139113550Y-79622685D01*
X139296046Y-79720232D01*
X139362551Y-79740405D01*
X139420989Y-79778702D01*
X139449446Y-79842514D01*
X139438887Y-79911581D01*
X139392663Y-79963975D01*
X139358650Y-79978841D01*
X139236514Y-80011567D01*
X139236507Y-80011570D01*
X139022422Y-80111399D01*
X139022420Y-80111400D01*
X138828926Y-80246886D01*
X138828920Y-80246891D01*
X138661891Y-80413920D01*
X138661886Y-80413926D01*
X138526400Y-80607420D01*
X138526399Y-80607422D01*
X138426570Y-80821507D01*
X138426567Y-80821513D01*
X138369364Y-81034999D01*
X138369364Y-81035000D01*
X139266314Y-81035000D01*
X139240507Y-81075156D01*
X139200000Y-81213111D01*
X139200000Y-81356889D01*
X139240507Y-81494844D01*
X139266314Y-81535000D01*
X138369364Y-81535000D01*
X138426567Y-81748486D01*
X138426570Y-81748492D01*
X138526399Y-81962578D01*
X138661894Y-82156082D01*
X138828917Y-82323105D01*
X139022421Y-82458600D01*
X139236507Y-82558429D01*
X139236516Y-82558433D01*
X139450000Y-82615634D01*
X139450000Y-81720501D01*
X139557685Y-81769680D01*
X139664237Y-81785000D01*
X139735763Y-81785000D01*
X139842315Y-81769680D01*
X139950000Y-81720501D01*
X139950000Y-82615633D01*
X140163483Y-82558433D01*
X140163492Y-82558429D01*
X140377578Y-82458600D01*
X140571082Y-82323105D01*
X140738105Y-82156082D01*
X140873600Y-81962578D01*
X140973429Y-81748492D01*
X140973432Y-81748486D01*
X141030636Y-81535000D01*
X140133686Y-81535000D01*
X140159493Y-81494844D01*
X140200000Y-81356889D01*
X140200000Y-81213111D01*
X140159493Y-81075156D01*
X140133686Y-81035000D01*
X141030636Y-81035000D01*
X141030635Y-81034999D01*
X140973432Y-80821513D01*
X140973429Y-80821507D01*
X140873600Y-80607422D01*
X140873599Y-80607420D01*
X140738113Y-80413926D01*
X140738108Y-80413920D01*
X140571082Y-80246894D01*
X140377578Y-80111399D01*
X140163492Y-80011570D01*
X140163486Y-80011567D01*
X140041349Y-79978841D01*
X139981689Y-79942476D01*
X139951160Y-79879629D01*
X139959455Y-79810253D01*
X140003940Y-79756375D01*
X140037444Y-79740407D01*
X140103954Y-79720232D01*
X140286450Y-79622685D01*
X140446410Y-79491410D01*
X140577685Y-79331450D01*
X140675232Y-79148954D01*
X140735300Y-78950934D01*
X140755583Y-78745000D01*
X140735300Y-78539066D01*
X140675232Y-78341046D01*
X140577685Y-78158550D01*
X140501982Y-78066305D01*
X140446410Y-77998589D01*
X140286452Y-77867317D01*
X140286453Y-77867317D01*
X140286450Y-77867315D01*
X140103954Y-77769768D01*
X139905934Y-77709700D01*
X139905932Y-77709699D01*
X139905934Y-77709699D01*
X139700000Y-77689417D01*
X139494067Y-77709699D01*
X139296043Y-77769769D01*
X139185898Y-77828643D01*
X139113550Y-77867315D01*
X139113548Y-77867316D01*
X139113547Y-77867317D01*
X138953591Y-77998588D01*
X138953115Y-77999169D01*
X138952787Y-77999391D01*
X138949287Y-78002893D01*
X138948622Y-78002228D01*
X138895368Y-78038501D01*
X138857265Y-78044500D01*
X132949570Y-78044500D01*
X132942083Y-78044274D01*
X132799395Y-78035643D01*
X132799391Y-78035643D01*
X132632068Y-78066305D01*
X132632064Y-78066307D01*
X132476944Y-78136122D01*
X132376629Y-78214713D01*
X131808706Y-78782637D01*
X131300712Y-79290629D01*
X131222121Y-79390944D01*
X131152306Y-79546064D01*
X131152304Y-79546068D01*
X131121642Y-79713392D01*
X131121642Y-79713395D01*
X130679088Y-79713395D01*
X130717044Y-79621762D01*
X130737682Y-79465000D01*
X130717044Y-79308238D01*
X130656536Y-79162159D01*
X130656535Y-79162158D01*
X130653426Y-79154651D01*
X130655777Y-79153676D01*
X130642759Y-79105070D01*
X130642759Y-76205000D01*
X138644417Y-76205000D01*
X138664699Y-76410932D01*
X138664700Y-76410934D01*
X138724768Y-76608954D01*
X138822315Y-76791450D01*
X138822317Y-76791452D01*
X138953589Y-76951410D01*
X139050209Y-77030702D01*
X139113550Y-77082685D01*
X139296046Y-77180232D01*
X139494066Y-77240300D01*
X139494065Y-77240300D01*
X139512529Y-77242118D01*
X139700000Y-77260583D01*
X139905934Y-77240300D01*
X140103954Y-77180232D01*
X140286450Y-77082685D01*
X140446410Y-76951410D01*
X140577685Y-76791450D01*
X140675232Y-76608954D01*
X140735300Y-76410934D01*
X140755583Y-76205000D01*
X140735300Y-75999066D01*
X140675232Y-75801046D01*
X140577685Y-75618550D01*
X140525702Y-75555209D01*
X140446410Y-75458589D01*
X140286452Y-75327317D01*
X140286453Y-75327317D01*
X140286450Y-75327315D01*
X140103954Y-75229768D01*
X139905934Y-75169700D01*
X139905932Y-75169699D01*
X139905934Y-75169699D01*
X139700000Y-75149417D01*
X139494067Y-75169699D01*
X139296043Y-75229769D01*
X139185898Y-75288643D01*
X139113550Y-75327315D01*
X139113548Y-75327316D01*
X139113547Y-75327317D01*
X138953589Y-75458589D01*
X138822317Y-75618547D01*
X138724769Y-75801043D01*
X138664699Y-75999067D01*
X138644417Y-76205000D01*
X130642759Y-76205000D01*
X130642759Y-73665000D01*
X138644417Y-73665000D01*
X138664699Y-73870932D01*
X138680283Y-73922304D01*
X138724768Y-74068954D01*
X138822315Y-74251450D01*
X138822317Y-74251452D01*
X138953589Y-74411410D01*
X139050209Y-74490702D01*
X139113550Y-74542685D01*
X139296046Y-74640232D01*
X139494066Y-74700300D01*
X139494065Y-74700300D01*
X139512529Y-74702118D01*
X139700000Y-74720583D01*
X139905934Y-74700300D01*
X140103954Y-74640232D01*
X140286450Y-74542685D01*
X140446410Y-74411410D01*
X140577685Y-74251450D01*
X140675232Y-74068954D01*
X140735300Y-73870934D01*
X140755583Y-73665000D01*
X140735300Y-73459066D01*
X140675232Y-73261046D01*
X140577685Y-73078550D01*
X140522892Y-73011784D01*
X140446410Y-72918589D01*
X140286452Y-72787317D01*
X140286453Y-72787317D01*
X140286450Y-72787315D01*
X140103954Y-72689768D01*
X139905934Y-72629700D01*
X139905932Y-72629699D01*
X139905934Y-72629699D01*
X139700000Y-72609417D01*
X139494067Y-72629699D01*
X139296043Y-72689769D01*
X139185898Y-72748643D01*
X139113550Y-72787315D01*
X139113548Y-72787316D01*
X139113547Y-72787317D01*
X138953589Y-72918589D01*
X138822317Y-73078547D01*
X138724769Y-73261043D01*
X138664699Y-73459067D01*
X138644417Y-73665000D01*
X130642759Y-73665000D01*
X130642759Y-72565590D01*
X130662444Y-72498551D01*
X130691273Y-72467214D01*
X130730282Y-72437282D01*
X130826536Y-72311841D01*
X130887044Y-72165762D01*
X130907682Y-72009000D01*
X130905806Y-71994752D01*
X138649500Y-71994752D01*
X138661131Y-72053229D01*
X138661132Y-72053230D01*
X138705447Y-72119552D01*
X138771769Y-72163867D01*
X138771770Y-72163868D01*
X138830247Y-72175499D01*
X138830250Y-72175500D01*
X138830252Y-72175500D01*
X140569750Y-72175500D01*
X140569751Y-72175499D01*
X140584568Y-72172552D01*
X140628229Y-72163868D01*
X140628229Y-72163867D01*
X140628231Y-72163867D01*
X140694552Y-72119552D01*
X140738867Y-72053231D01*
X140738867Y-72053229D01*
X140738868Y-72053229D01*
X140750499Y-71994752D01*
X140750500Y-71994750D01*
X140750500Y-70255249D01*
X140750499Y-70255247D01*
X140738868Y-70196770D01*
X140738867Y-70196769D01*
X140694552Y-70130447D01*
X140628230Y-70086132D01*
X140628229Y-70086131D01*
X140569752Y-70074500D01*
X140569748Y-70074500D01*
X138830252Y-70074500D01*
X138830247Y-70074500D01*
X138771770Y-70086131D01*
X138771769Y-70086132D01*
X138705447Y-70130447D01*
X138661132Y-70196769D01*
X138661131Y-70196770D01*
X138649500Y-70255247D01*
X138649500Y-71994752D01*
X130905806Y-71994752D01*
X130887044Y-71852238D01*
X130826536Y-71706159D01*
X130730282Y-71580718D01*
X130604841Y-71484464D01*
X130458762Y-71423956D01*
X130458760Y-71423955D01*
X130302001Y-71403318D01*
X130301999Y-71403318D01*
X130145239Y-71423955D01*
X130145237Y-71423956D01*
X129999160Y-71484463D01*
X129873718Y-71580718D01*
X129777463Y-71706160D01*
X129716956Y-71852237D01*
X129716955Y-71852239D01*
X129696318Y-72008998D01*
X129696318Y-72009001D01*
X129716955Y-72165760D01*
X129716956Y-72165762D01*
X129777464Y-72311841D01*
X129873718Y-72437282D01*
X129873719Y-72437283D01*
X129943245Y-72490631D01*
X129984448Y-72547058D01*
X129991759Y-72589007D01*
X129991759Y-78790258D01*
X129972074Y-78857297D01*
X129919270Y-78903052D01*
X129915215Y-78904818D01*
X129903956Y-78909482D01*
X129834487Y-78916952D01*
X129772007Y-78885679D01*
X129736353Y-78825591D01*
X129732500Y-78794922D01*
X129732500Y-74686908D01*
X129732726Y-74679421D01*
X129736357Y-74619394D01*
X129725512Y-74560217D01*
X129724388Y-74552826D01*
X129723156Y-74542682D01*
X129717140Y-74493128D01*
X129713548Y-74483656D01*
X129707522Y-74462042D01*
X129705695Y-74452068D01*
X129681006Y-74397212D01*
X129678142Y-74390297D01*
X129656819Y-74334071D01*
X129654723Y-74331035D01*
X129651063Y-74325733D01*
X129640036Y-74306182D01*
X129635879Y-74296946D01*
X129635878Y-74296943D01*
X129598785Y-74249597D01*
X129594355Y-74243577D01*
X129560183Y-74194071D01*
X129515152Y-74154177D01*
X129509732Y-74149075D01*
X129431367Y-74070710D01*
X129331057Y-73992122D01*
X129243071Y-73952522D01*
X129175935Y-73922306D01*
X129175931Y-73922304D01*
X129008607Y-73891642D01*
X129008603Y-73891642D01*
X128881254Y-73899346D01*
X128838804Y-73901914D01*
X128757599Y-73927218D01*
X128676393Y-73952522D01*
X128530811Y-74040530D01*
X128410530Y-74160811D01*
X128322522Y-74306393D01*
X128297218Y-74387599D01*
X128277131Y-74452064D01*
X128271914Y-74468805D01*
X128261642Y-74638603D01*
X128261642Y-74638605D01*
X128292304Y-74805931D01*
X128292305Y-74805932D01*
X128320575Y-74868745D01*
X128331500Y-74919636D01*
X128331500Y-79160480D01*
X128311815Y-79227519D01*
X128295181Y-79248161D01*
X128014290Y-79529051D01*
X128008838Y-79534183D01*
X127963819Y-79574068D01*
X127929649Y-79623569D01*
X127925213Y-79629597D01*
X127888124Y-79676938D01*
X127888119Y-79676948D01*
X127883960Y-79686188D01*
X127872942Y-79705723D01*
X127867187Y-79714061D01*
X127867179Y-79714076D01*
X127845853Y-79770305D01*
X127842989Y-79777220D01*
X127818305Y-79832068D01*
X127816477Y-79842042D01*
X127810453Y-79863653D01*
X127806860Y-79873127D01*
X127806860Y-79873128D01*
X127799610Y-79932827D01*
X127798483Y-79940227D01*
X127787642Y-79999389D01*
X127787642Y-79999395D01*
X127791274Y-80059432D01*
X127791500Y-80066920D01*
X127791500Y-82865075D01*
X127791274Y-82872563D01*
X127787642Y-82932600D01*
X127787642Y-82932602D01*
X127798483Y-82991767D01*
X127799610Y-82999168D01*
X127806859Y-83058868D01*
X127806860Y-83058871D01*
X127810451Y-83068340D01*
X127816474Y-83089944D01*
X127819656Y-83107300D01*
X127819223Y-83107379D01*
X127823500Y-83135472D01*
X127823500Y-83574524D01*
X127819225Y-83602610D01*
X127819657Y-83602690D01*
X127789578Y-83766831D01*
X127787642Y-83777394D01*
X114600500Y-83777394D01*
X114600500Y-81285000D01*
X115784417Y-81285000D01*
X115804699Y-81490932D01*
X115804700Y-81490934D01*
X115864768Y-81688954D01*
X115962315Y-81871450D01*
X115962317Y-81871452D01*
X116093589Y-82031410D01*
X116190209Y-82110702D01*
X116253550Y-82162685D01*
X116436046Y-82260232D01*
X116634066Y-82320300D01*
X116634065Y-82320300D01*
X116652529Y-82322118D01*
X116840000Y-82340583D01*
X117045934Y-82320300D01*
X117243954Y-82260232D01*
X117426450Y-82162685D01*
X117586410Y-82031410D01*
X117717685Y-81871450D01*
X117815232Y-81688954D01*
X117875300Y-81490934D01*
X117895583Y-81285000D01*
X117875300Y-81079066D01*
X117815232Y-80881046D01*
X117717685Y-80698550D01*
X117642897Y-80607420D01*
X117586410Y-80538589D01*
X117453718Y-80429693D01*
X117426450Y-80407315D01*
X117243954Y-80309768D01*
X117045934Y-80249700D01*
X117045932Y-80249699D01*
X117045934Y-80249699D01*
X116840000Y-80229417D01*
X116634067Y-80249699D01*
X116436043Y-80309769D01*
X116325898Y-80368643D01*
X116253550Y-80407315D01*
X116253548Y-80407316D01*
X116253547Y-80407317D01*
X116093589Y-80538589D01*
X115962317Y-80698547D01*
X115864769Y-80881043D01*
X115804699Y-81079067D01*
X115784417Y-81285000D01*
X114600500Y-81285000D01*
X114600500Y-78745000D01*
X115784417Y-78745000D01*
X115804699Y-78950932D01*
X115804700Y-78950934D01*
X115864768Y-79148954D01*
X115962315Y-79331450D01*
X115962317Y-79331452D01*
X116093589Y-79491410D01*
X116145709Y-79534183D01*
X116253550Y-79622685D01*
X116436046Y-79720232D01*
X116634066Y-79780300D01*
X116634065Y-79780300D01*
X116652529Y-79782118D01*
X116840000Y-79800583D01*
X117045934Y-79780300D01*
X117243954Y-79720232D01*
X117426450Y-79622685D01*
X117586410Y-79491410D01*
X117717685Y-79331450D01*
X117815232Y-79148954D01*
X117875300Y-78950934D01*
X117895583Y-78745000D01*
X117875300Y-78539066D01*
X117815232Y-78341046D01*
X117717685Y-78158550D01*
X117641982Y-78066305D01*
X117586410Y-77998589D01*
X117426452Y-77867317D01*
X117426453Y-77867317D01*
X117426450Y-77867315D01*
X117243954Y-77769768D01*
X117045934Y-77709700D01*
X117045932Y-77709699D01*
X117045934Y-77709699D01*
X116840000Y-77689417D01*
X116634067Y-77709699D01*
X116436043Y-77769769D01*
X116325898Y-77828643D01*
X116253550Y-77867315D01*
X116253548Y-77867316D01*
X116253547Y-77867317D01*
X116093589Y-77998589D01*
X115962317Y-78158547D01*
X115864769Y-78341043D01*
X115804699Y-78539067D01*
X115784417Y-78745000D01*
X114600500Y-78745000D01*
X114600500Y-76205000D01*
X115784417Y-76205000D01*
X115804699Y-76410932D01*
X115804700Y-76410934D01*
X115864768Y-76608954D01*
X115962315Y-76791450D01*
X115962317Y-76791452D01*
X116093589Y-76951410D01*
X116190209Y-77030702D01*
X116253550Y-77082685D01*
X116436046Y-77180232D01*
X116634066Y-77240300D01*
X116634065Y-77240300D01*
X116652529Y-77242118D01*
X116840000Y-77260583D01*
X117045934Y-77240300D01*
X117243954Y-77180232D01*
X117426450Y-77082685D01*
X117586410Y-76951410D01*
X117717685Y-76791450D01*
X117815232Y-76608954D01*
X117875300Y-76410934D01*
X117895583Y-76205000D01*
X117875300Y-75999066D01*
X117815232Y-75801046D01*
X117717685Y-75618550D01*
X117665702Y-75555209D01*
X117586410Y-75458589D01*
X117426452Y-75327317D01*
X117426453Y-75327317D01*
X117426450Y-75327315D01*
X117243954Y-75229768D01*
X117045934Y-75169700D01*
X117045932Y-75169699D01*
X117045934Y-75169699D01*
X116840000Y-75149417D01*
X116634067Y-75169699D01*
X116436043Y-75229769D01*
X116325898Y-75288643D01*
X116253550Y-75327315D01*
X116253548Y-75327316D01*
X116253547Y-75327317D01*
X116093589Y-75458589D01*
X115962317Y-75618547D01*
X115864769Y-75801043D01*
X115804699Y-75999067D01*
X115784417Y-76205000D01*
X114600500Y-76205000D01*
X114600500Y-73665000D01*
X115784417Y-73665000D01*
X115804699Y-73870932D01*
X115820283Y-73922304D01*
X115864768Y-74068954D01*
X115962315Y-74251450D01*
X115962317Y-74251452D01*
X116093589Y-74411410D01*
X116190209Y-74490702D01*
X116253550Y-74542685D01*
X116436046Y-74640232D01*
X116634066Y-74700300D01*
X116634065Y-74700300D01*
X116652529Y-74702118D01*
X116840000Y-74720583D01*
X117045934Y-74700300D01*
X117243954Y-74640232D01*
X117426450Y-74542685D01*
X117586410Y-74411410D01*
X117717685Y-74251450D01*
X117815232Y-74068954D01*
X117875300Y-73870934D01*
X117895583Y-73665000D01*
X117875300Y-73459066D01*
X117815232Y-73261046D01*
X117717685Y-73078550D01*
X117662892Y-73011784D01*
X117586410Y-72918589D01*
X117426452Y-72787317D01*
X117426453Y-72787317D01*
X117426450Y-72787315D01*
X117243954Y-72689768D01*
X117045934Y-72629700D01*
X117045932Y-72629699D01*
X117045934Y-72629699D01*
X116840000Y-72609417D01*
X116634067Y-72629699D01*
X116436043Y-72689769D01*
X116325898Y-72748643D01*
X116253550Y-72787315D01*
X116253548Y-72787316D01*
X116253547Y-72787317D01*
X116093589Y-72918589D01*
X115962317Y-73078547D01*
X115864769Y-73261043D01*
X115804699Y-73459067D01*
X115784417Y-73665000D01*
X114600500Y-73665000D01*
X114600500Y-71994752D01*
X115789500Y-71994752D01*
X115801131Y-72053229D01*
X115801132Y-72053230D01*
X115845447Y-72119552D01*
X115911769Y-72163867D01*
X115911770Y-72163868D01*
X115970247Y-72175499D01*
X115970250Y-72175500D01*
X115970252Y-72175500D01*
X117709750Y-72175500D01*
X117709751Y-72175499D01*
X117724568Y-72172552D01*
X117768229Y-72163868D01*
X117768229Y-72163867D01*
X117768231Y-72163867D01*
X117834552Y-72119552D01*
X117878867Y-72053231D01*
X117878867Y-72053229D01*
X117878868Y-72053229D01*
X117890499Y-71994752D01*
X117890500Y-71994750D01*
X117890500Y-70255249D01*
X117890499Y-70255247D01*
X117878868Y-70196770D01*
X117878867Y-70196769D01*
X117834552Y-70130447D01*
X117768230Y-70086132D01*
X117768229Y-70086131D01*
X117709752Y-70074500D01*
X117709748Y-70074500D01*
X115970252Y-70074500D01*
X115970247Y-70074500D01*
X115911770Y-70086131D01*
X115911769Y-70086132D01*
X115845447Y-70130447D01*
X115801132Y-70196769D01*
X115801131Y-70196770D01*
X115789500Y-70255247D01*
X115789500Y-71994752D01*
X114600500Y-71994752D01*
X114600500Y-66043750D01*
X114600726Y-66036263D01*
X114616375Y-65777544D01*
X114618180Y-65762679D01*
X114664225Y-65511424D01*
X114667803Y-65496906D01*
X114743805Y-65253004D01*
X114749102Y-65239038D01*
X114853949Y-65006077D01*
X114860894Y-64992845D01*
X114993056Y-64774223D01*
X115001543Y-64761927D01*
X115159093Y-64560829D01*
X115169008Y-64549638D01*
X115349638Y-64369008D01*
X115360829Y-64359093D01*
X115561927Y-64201543D01*
X115574223Y-64193056D01*
X115792845Y-64060894D01*
X115806077Y-64053949D01*
X116039038Y-63949102D01*
X116053004Y-63943805D01*
X116296906Y-63867803D01*
X116311420Y-63864225D01*
X116562683Y-63818179D01*
X116577540Y-63816375D01*
X116836264Y-63800726D01*
X116843751Y-63800500D01*
X116887595Y-63800500D01*
X139652405Y-63800500D01*
X139696249Y-63800500D01*
X139703736Y-63800726D01*
G37*
%TD.AperFunction*%
%TD*%
M02*
