M48
; DRILL file {KiCad 7.0.10} date Wed May  8 17:12:18 2024
; FORMAT={-:-/ absolute / inch / decimal}
; #@! TF.CreationDate,2024-05-08T17:12:18+09:00
; #@! TF.GenerationSoftware,Kicad,Pcbnew,7.0.10
; #@! TF.FileFunction,Plated,1,2,PTH
FMAT,2
INCH
; #@! TA.AperFunction,Plated,PTH,ViaDrill
T1C0.0157
; #@! TA.AperFunction,Plated,PTH,ComponentDrill
T2C0.0394
%
G90
G05
T1
X5.0587Y-3.2268
X5.0587Y-3.2634
X5.0587Y-3.3
X5.0774Y-2.9369
X5.08Y-2.97
X5.1233Y-3.1285
X5.13Y-2.835
X5.19Y-3.14
X5.21Y-3.12
X5.23Y-3.1
T2
X4.6Y-2.8002
X4.6Y-2.9002
X4.6Y-3.0002
X4.6Y-3.1002
X4.6Y-3.2002
X5.5Y-2.8002
X5.5Y-2.9002
X5.5Y-3.0002
X5.5Y-3.1002
X5.5Y-3.2002
M30
