%TF.GenerationSoftware,KiCad,Pcbnew,7.0.10*%
%TF.CreationDate,2024-05-08T17:12:16+09:00*%
%TF.ProjectId,CANFD_Module_withMCP2517FD&MCP2562FD,43414e46-445f-44d6-9f64-756c655f7769,rev?*%
%TF.SameCoordinates,Original*%
%TF.FileFunction,Drillmap*%
%TF.FilePolarity,Positive*%
%FSLAX45Y45*%
G04 Gerber Fmt 4.5, Leading zero omitted, Abs format (unit mm)*
G04 Created by KiCad (PCBNEW 7.0.10) date 2024-05-08 17:12:16*
%MOMM*%
%LPD*%
G01*
G04 APERTURE LIST*
%ADD10C,0.100000*%
%ADD11C,0.200000*%
G04 APERTURE END LIST*
D10*
X13970000Y-6350000D02*
X11684000Y-6350000D01*
X14224000Y-8636000D02*
X14224000Y-6604000D01*
X11684000Y-8890000D02*
X13970000Y-8890000D01*
X11430000Y-6604000D02*
X11430000Y-8636000D01*
X11430000Y-8636000D02*
G75*
G03*
X11684000Y-8890000I254000J0D01*
G01*
X11684000Y-6350000D02*
G75*
G03*
X11430000Y-6604000I0J-254000D01*
G01*
X13970000Y-8890000D02*
G75*
G03*
X14224000Y-8636000I0J254000D01*
G01*
X14224000Y-6604000D02*
G75*
G03*
X13970000Y-6350000I-254000J0D01*
G01*
D11*
D10*
X12829200Y-8175999D02*
X12869200Y-8215999D01*
X12869200Y-8175999D02*
X12829200Y-8215999D01*
X12829200Y-8269000D02*
X12869200Y-8309000D01*
X12869200Y-8269000D02*
X12829200Y-8309000D01*
X12829200Y-8362000D02*
X12869200Y-8402000D01*
X12869200Y-8362000D02*
X12829200Y-8402000D01*
X12876600Y-7439600D02*
X12916600Y-7479600D01*
X12916600Y-7439600D02*
X12876600Y-7479600D01*
X12883200Y-7523800D02*
X12923200Y-7563800D01*
X12923200Y-7523800D02*
X12883200Y-7563800D01*
X12993200Y-7926500D02*
X13033200Y-7966500D01*
X13033200Y-7926500D02*
X12993200Y-7966500D01*
X13010200Y-7180900D02*
X13050200Y-7220900D01*
X13050200Y-7180900D02*
X13010200Y-7220900D01*
X13162600Y-7955600D02*
X13202600Y-7995600D01*
X13202600Y-7955600D02*
X13162600Y-7995600D01*
X13213400Y-7904800D02*
X13253400Y-7944800D01*
X13253400Y-7904800D02*
X13213400Y-7944800D01*
X13264200Y-7854000D02*
X13304200Y-7894000D01*
X13304200Y-7854000D02*
X13264200Y-7894000D01*
X11734000Y-7112500D02*
G75*
G03*
X11634000Y-7112500I-50000J0D01*
G01*
X11634000Y-7112500D02*
G75*
G03*
X11734000Y-7112500I50000J0D01*
G01*
X11734000Y-7366500D02*
G75*
G03*
X11634000Y-7366500I-50000J0D01*
G01*
X11634000Y-7366500D02*
G75*
G03*
X11734000Y-7366500I50000J0D01*
G01*
X11734000Y-7620500D02*
G75*
G03*
X11634000Y-7620500I-50000J0D01*
G01*
X11634000Y-7620500D02*
G75*
G03*
X11734000Y-7620500I50000J0D01*
G01*
X11734000Y-7874500D02*
G75*
G03*
X11634000Y-7874500I-50000J0D01*
G01*
X11634000Y-7874500D02*
G75*
G03*
X11734000Y-7874500I50000J0D01*
G01*
X11734000Y-8128500D02*
G75*
G03*
X11634000Y-8128500I-50000J0D01*
G01*
X11634000Y-8128500D02*
G75*
G03*
X11734000Y-8128500I50000J0D01*
G01*
X14020000Y-7112500D02*
G75*
G03*
X13920000Y-7112500I-50000J0D01*
G01*
X13920000Y-7112500D02*
G75*
G03*
X14020000Y-7112500I50000J0D01*
G01*
X14020000Y-7366500D02*
G75*
G03*
X13920000Y-7366500I-50000J0D01*
G01*
X13920000Y-7366500D02*
G75*
G03*
X14020000Y-7366500I50000J0D01*
G01*
X14020000Y-7620500D02*
G75*
G03*
X13920000Y-7620500I-50000J0D01*
G01*
X13920000Y-7620500D02*
G75*
G03*
X14020000Y-7620500I50000J0D01*
G01*
X14020000Y-7874500D02*
G75*
G03*
X13920000Y-7874500I-50000J0D01*
G01*
X13920000Y-7874500D02*
G75*
G03*
X14020000Y-7874500I50000J0D01*
G01*
X14020000Y-8128500D02*
G75*
G03*
X13920000Y-8128500I-50000J0D01*
G01*
X13920000Y-8128500D02*
G75*
G03*
X14020000Y-8128500I50000J0D01*
G01*
D11*
X11685777Y-9206484D02*
X11685777Y-9006484D01*
X11685777Y-9006484D02*
X11733396Y-9006484D01*
X11733396Y-9006484D02*
X11761967Y-9016008D01*
X11761967Y-9016008D02*
X11781015Y-9035055D01*
X11781015Y-9035055D02*
X11790539Y-9054103D01*
X11790539Y-9054103D02*
X11800062Y-9092198D01*
X11800062Y-9092198D02*
X11800062Y-9120770D01*
X11800062Y-9120770D02*
X11790539Y-9158865D01*
X11790539Y-9158865D02*
X11781015Y-9177912D01*
X11781015Y-9177912D02*
X11761967Y-9196960D01*
X11761967Y-9196960D02*
X11733396Y-9206484D01*
X11733396Y-9206484D02*
X11685777Y-9206484D01*
X11885777Y-9206484D02*
X11885777Y-9073150D01*
X11885777Y-9111246D02*
X11895301Y-9092198D01*
X11895301Y-9092198D02*
X11904824Y-9082674D01*
X11904824Y-9082674D02*
X11923872Y-9073150D01*
X11923872Y-9073150D02*
X11942920Y-9073150D01*
X12009586Y-9206484D02*
X12009586Y-9073150D01*
X12009586Y-9006484D02*
X12000062Y-9016008D01*
X12000062Y-9016008D02*
X12009586Y-9025531D01*
X12009586Y-9025531D02*
X12019110Y-9016008D01*
X12019110Y-9016008D02*
X12009586Y-9006484D01*
X12009586Y-9006484D02*
X12009586Y-9025531D01*
X12133396Y-9206484D02*
X12114348Y-9196960D01*
X12114348Y-9196960D02*
X12104824Y-9177912D01*
X12104824Y-9177912D02*
X12104824Y-9006484D01*
X12238158Y-9206484D02*
X12219110Y-9196960D01*
X12219110Y-9196960D02*
X12209586Y-9177912D01*
X12209586Y-9177912D02*
X12209586Y-9006484D01*
X12466729Y-9206484D02*
X12466729Y-9006484D01*
X12466729Y-9006484D02*
X12533396Y-9149341D01*
X12533396Y-9149341D02*
X12600062Y-9006484D01*
X12600062Y-9006484D02*
X12600062Y-9206484D01*
X12781015Y-9206484D02*
X12781015Y-9101722D01*
X12781015Y-9101722D02*
X12771491Y-9082674D01*
X12771491Y-9082674D02*
X12752443Y-9073150D01*
X12752443Y-9073150D02*
X12714348Y-9073150D01*
X12714348Y-9073150D02*
X12695301Y-9082674D01*
X12781015Y-9196960D02*
X12761967Y-9206484D01*
X12761967Y-9206484D02*
X12714348Y-9206484D01*
X12714348Y-9206484D02*
X12695301Y-9196960D01*
X12695301Y-9196960D02*
X12685777Y-9177912D01*
X12685777Y-9177912D02*
X12685777Y-9158865D01*
X12685777Y-9158865D02*
X12695301Y-9139817D01*
X12695301Y-9139817D02*
X12714348Y-9130293D01*
X12714348Y-9130293D02*
X12761967Y-9130293D01*
X12761967Y-9130293D02*
X12781015Y-9120770D01*
X12876253Y-9073150D02*
X12876253Y-9273150D01*
X12876253Y-9082674D02*
X12895301Y-9073150D01*
X12895301Y-9073150D02*
X12933396Y-9073150D01*
X12933396Y-9073150D02*
X12952443Y-9082674D01*
X12952443Y-9082674D02*
X12961967Y-9092198D01*
X12961967Y-9092198D02*
X12971491Y-9111246D01*
X12971491Y-9111246D02*
X12971491Y-9168389D01*
X12971491Y-9168389D02*
X12961967Y-9187436D01*
X12961967Y-9187436D02*
X12952443Y-9196960D01*
X12952443Y-9196960D02*
X12933396Y-9206484D01*
X12933396Y-9206484D02*
X12895301Y-9206484D01*
X12895301Y-9206484D02*
X12876253Y-9196960D01*
X13057205Y-9187436D02*
X13066729Y-9196960D01*
X13066729Y-9196960D02*
X13057205Y-9206484D01*
X13057205Y-9206484D02*
X13047682Y-9196960D01*
X13047682Y-9196960D02*
X13057205Y-9187436D01*
X13057205Y-9187436D02*
X13057205Y-9206484D01*
X13057205Y-9082674D02*
X13066729Y-9092198D01*
X13066729Y-9092198D02*
X13057205Y-9101722D01*
X13057205Y-9101722D02*
X13047682Y-9092198D01*
X13047682Y-9092198D02*
X13057205Y-9082674D01*
X13057205Y-9082674D02*
X13057205Y-9101722D01*
D10*
X11385000Y-9515000D02*
X11425000Y-9555000D01*
X11425000Y-9515000D02*
X11385000Y-9555000D01*
D11*
X11723872Y-9426484D02*
X11742920Y-9426484D01*
X11742920Y-9426484D02*
X11761967Y-9436008D01*
X11761967Y-9436008D02*
X11771491Y-9445531D01*
X11771491Y-9445531D02*
X11781015Y-9464579D01*
X11781015Y-9464579D02*
X11790539Y-9502674D01*
X11790539Y-9502674D02*
X11790539Y-9550293D01*
X11790539Y-9550293D02*
X11781015Y-9588389D01*
X11781015Y-9588389D02*
X11771491Y-9607436D01*
X11771491Y-9607436D02*
X11761967Y-9616960D01*
X11761967Y-9616960D02*
X11742920Y-9626484D01*
X11742920Y-9626484D02*
X11723872Y-9626484D01*
X11723872Y-9626484D02*
X11704824Y-9616960D01*
X11704824Y-9616960D02*
X11695301Y-9607436D01*
X11695301Y-9607436D02*
X11685777Y-9588389D01*
X11685777Y-9588389D02*
X11676253Y-9550293D01*
X11676253Y-9550293D02*
X11676253Y-9502674D01*
X11676253Y-9502674D02*
X11685777Y-9464579D01*
X11685777Y-9464579D02*
X11695301Y-9445531D01*
X11695301Y-9445531D02*
X11704824Y-9436008D01*
X11704824Y-9436008D02*
X11723872Y-9426484D01*
X11876253Y-9607436D02*
X11885777Y-9616960D01*
X11885777Y-9616960D02*
X11876253Y-9626484D01*
X11876253Y-9626484D02*
X11866729Y-9616960D01*
X11866729Y-9616960D02*
X11876253Y-9607436D01*
X11876253Y-9607436D02*
X11876253Y-9626484D01*
X12057205Y-9493150D02*
X12057205Y-9626484D01*
X12009586Y-9416960D02*
X11961967Y-9559817D01*
X11961967Y-9559817D02*
X12085777Y-9559817D01*
X12200062Y-9426484D02*
X12219110Y-9426484D01*
X12219110Y-9426484D02*
X12238158Y-9436008D01*
X12238158Y-9436008D02*
X12247682Y-9445531D01*
X12247682Y-9445531D02*
X12257205Y-9464579D01*
X12257205Y-9464579D02*
X12266729Y-9502674D01*
X12266729Y-9502674D02*
X12266729Y-9550293D01*
X12266729Y-9550293D02*
X12257205Y-9588389D01*
X12257205Y-9588389D02*
X12247682Y-9607436D01*
X12247682Y-9607436D02*
X12238158Y-9616960D01*
X12238158Y-9616960D02*
X12219110Y-9626484D01*
X12219110Y-9626484D02*
X12200062Y-9626484D01*
X12200062Y-9626484D02*
X12181015Y-9616960D01*
X12181015Y-9616960D02*
X12171491Y-9607436D01*
X12171491Y-9607436D02*
X12161967Y-9588389D01*
X12161967Y-9588389D02*
X12152443Y-9550293D01*
X12152443Y-9550293D02*
X12152443Y-9502674D01*
X12152443Y-9502674D02*
X12161967Y-9464579D01*
X12161967Y-9464579D02*
X12171491Y-9445531D01*
X12171491Y-9445531D02*
X12181015Y-9436008D01*
X12181015Y-9436008D02*
X12200062Y-9426484D01*
X12390539Y-9426484D02*
X12409586Y-9426484D01*
X12409586Y-9426484D02*
X12428634Y-9436008D01*
X12428634Y-9436008D02*
X12438158Y-9445531D01*
X12438158Y-9445531D02*
X12447682Y-9464579D01*
X12447682Y-9464579D02*
X12457205Y-9502674D01*
X12457205Y-9502674D02*
X12457205Y-9550293D01*
X12457205Y-9550293D02*
X12447682Y-9588389D01*
X12447682Y-9588389D02*
X12438158Y-9607436D01*
X12438158Y-9607436D02*
X12428634Y-9616960D01*
X12428634Y-9616960D02*
X12409586Y-9626484D01*
X12409586Y-9626484D02*
X12390539Y-9626484D01*
X12390539Y-9626484D02*
X12371491Y-9616960D01*
X12371491Y-9616960D02*
X12361967Y-9607436D01*
X12361967Y-9607436D02*
X12352443Y-9588389D01*
X12352443Y-9588389D02*
X12342920Y-9550293D01*
X12342920Y-9550293D02*
X12342920Y-9502674D01*
X12342920Y-9502674D02*
X12352443Y-9464579D01*
X12352443Y-9464579D02*
X12361967Y-9445531D01*
X12361967Y-9445531D02*
X12371491Y-9436008D01*
X12371491Y-9436008D02*
X12390539Y-9426484D01*
X12542920Y-9626484D02*
X12542920Y-9493150D01*
X12542920Y-9512198D02*
X12552443Y-9502674D01*
X12552443Y-9502674D02*
X12571491Y-9493150D01*
X12571491Y-9493150D02*
X12600063Y-9493150D01*
X12600063Y-9493150D02*
X12619110Y-9502674D01*
X12619110Y-9502674D02*
X12628634Y-9521722D01*
X12628634Y-9521722D02*
X12628634Y-9626484D01*
X12628634Y-9521722D02*
X12638158Y-9502674D01*
X12638158Y-9502674D02*
X12657205Y-9493150D01*
X12657205Y-9493150D02*
X12685777Y-9493150D01*
X12685777Y-9493150D02*
X12704824Y-9502674D01*
X12704824Y-9502674D02*
X12714348Y-9521722D01*
X12714348Y-9521722D02*
X12714348Y-9626484D01*
X12809586Y-9626484D02*
X12809586Y-9493150D01*
X12809586Y-9512198D02*
X12819110Y-9502674D01*
X12819110Y-9502674D02*
X12838158Y-9493150D01*
X12838158Y-9493150D02*
X12866729Y-9493150D01*
X12866729Y-9493150D02*
X12885777Y-9502674D01*
X12885777Y-9502674D02*
X12895301Y-9521722D01*
X12895301Y-9521722D02*
X12895301Y-9626484D01*
X12895301Y-9521722D02*
X12904824Y-9502674D01*
X12904824Y-9502674D02*
X12923872Y-9493150D01*
X12923872Y-9493150D02*
X12952443Y-9493150D01*
X12952443Y-9493150D02*
X12971491Y-9502674D01*
X12971491Y-9502674D02*
X12981015Y-9521722D01*
X12981015Y-9521722D02*
X12981015Y-9626484D01*
X13371491Y-9416960D02*
X13200063Y-9674103D01*
X13628634Y-9426484D02*
X13647682Y-9426484D01*
X13647682Y-9426484D02*
X13666729Y-9436008D01*
X13666729Y-9436008D02*
X13676253Y-9445531D01*
X13676253Y-9445531D02*
X13685777Y-9464579D01*
X13685777Y-9464579D02*
X13695301Y-9502674D01*
X13695301Y-9502674D02*
X13695301Y-9550293D01*
X13695301Y-9550293D02*
X13685777Y-9588389D01*
X13685777Y-9588389D02*
X13676253Y-9607436D01*
X13676253Y-9607436D02*
X13666729Y-9616960D01*
X13666729Y-9616960D02*
X13647682Y-9626484D01*
X13647682Y-9626484D02*
X13628634Y-9626484D01*
X13628634Y-9626484D02*
X13609586Y-9616960D01*
X13609586Y-9616960D02*
X13600063Y-9607436D01*
X13600063Y-9607436D02*
X13590539Y-9588389D01*
X13590539Y-9588389D02*
X13581015Y-9550293D01*
X13581015Y-9550293D02*
X13581015Y-9502674D01*
X13581015Y-9502674D02*
X13590539Y-9464579D01*
X13590539Y-9464579D02*
X13600063Y-9445531D01*
X13600063Y-9445531D02*
X13609586Y-9436008D01*
X13609586Y-9436008D02*
X13628634Y-9426484D01*
X13781015Y-9607436D02*
X13790539Y-9616960D01*
X13790539Y-9616960D02*
X13781015Y-9626484D01*
X13781015Y-9626484D02*
X13771491Y-9616960D01*
X13771491Y-9616960D02*
X13781015Y-9607436D01*
X13781015Y-9607436D02*
X13781015Y-9626484D01*
X13914348Y-9426484D02*
X13933396Y-9426484D01*
X13933396Y-9426484D02*
X13952444Y-9436008D01*
X13952444Y-9436008D02*
X13961967Y-9445531D01*
X13961967Y-9445531D02*
X13971491Y-9464579D01*
X13971491Y-9464579D02*
X13981015Y-9502674D01*
X13981015Y-9502674D02*
X13981015Y-9550293D01*
X13981015Y-9550293D02*
X13971491Y-9588389D01*
X13971491Y-9588389D02*
X13961967Y-9607436D01*
X13961967Y-9607436D02*
X13952444Y-9616960D01*
X13952444Y-9616960D02*
X13933396Y-9626484D01*
X13933396Y-9626484D02*
X13914348Y-9626484D01*
X13914348Y-9626484D02*
X13895301Y-9616960D01*
X13895301Y-9616960D02*
X13885777Y-9607436D01*
X13885777Y-9607436D02*
X13876253Y-9588389D01*
X13876253Y-9588389D02*
X13866729Y-9550293D01*
X13866729Y-9550293D02*
X13866729Y-9502674D01*
X13866729Y-9502674D02*
X13876253Y-9464579D01*
X13876253Y-9464579D02*
X13885777Y-9445531D01*
X13885777Y-9445531D02*
X13895301Y-9436008D01*
X13895301Y-9436008D02*
X13914348Y-9426484D01*
X14171491Y-9626484D02*
X14057206Y-9626484D01*
X14114348Y-9626484D02*
X14114348Y-9426484D01*
X14114348Y-9426484D02*
X14095301Y-9455055D01*
X14095301Y-9455055D02*
X14076253Y-9474103D01*
X14076253Y-9474103D02*
X14057206Y-9483627D01*
X14352444Y-9426484D02*
X14257206Y-9426484D01*
X14257206Y-9426484D02*
X14247682Y-9521722D01*
X14247682Y-9521722D02*
X14257206Y-9512198D01*
X14257206Y-9512198D02*
X14276253Y-9502674D01*
X14276253Y-9502674D02*
X14323872Y-9502674D01*
X14323872Y-9502674D02*
X14342920Y-9512198D01*
X14342920Y-9512198D02*
X14352444Y-9521722D01*
X14352444Y-9521722D02*
X14361967Y-9540770D01*
X14361967Y-9540770D02*
X14361967Y-9588389D01*
X14361967Y-9588389D02*
X14352444Y-9607436D01*
X14352444Y-9607436D02*
X14342920Y-9616960D01*
X14342920Y-9616960D02*
X14323872Y-9626484D01*
X14323872Y-9626484D02*
X14276253Y-9626484D01*
X14276253Y-9626484D02*
X14257206Y-9616960D01*
X14257206Y-9616960D02*
X14247682Y-9607436D01*
X14428634Y-9426484D02*
X14561967Y-9426484D01*
X14561967Y-9426484D02*
X14476253Y-9626484D01*
X14628634Y-9426484D02*
X14628634Y-9464579D01*
X14704825Y-9426484D02*
X14704825Y-9464579D01*
X15000063Y-9702674D02*
X14990539Y-9693150D01*
X14990539Y-9693150D02*
X14971491Y-9664579D01*
X14971491Y-9664579D02*
X14961968Y-9645531D01*
X14961968Y-9645531D02*
X14952444Y-9616960D01*
X14952444Y-9616960D02*
X14942920Y-9569341D01*
X14942920Y-9569341D02*
X14942920Y-9531246D01*
X14942920Y-9531246D02*
X14952444Y-9483627D01*
X14952444Y-9483627D02*
X14961968Y-9455055D01*
X14961968Y-9455055D02*
X14971491Y-9436008D01*
X14971491Y-9436008D02*
X14990539Y-9407436D01*
X14990539Y-9407436D02*
X15000063Y-9397912D01*
X15181015Y-9626484D02*
X15066729Y-9626484D01*
X15123872Y-9626484D02*
X15123872Y-9426484D01*
X15123872Y-9426484D02*
X15104825Y-9455055D01*
X15104825Y-9455055D02*
X15085777Y-9474103D01*
X15085777Y-9474103D02*
X15066729Y-9483627D01*
X15304825Y-9426484D02*
X15323872Y-9426484D01*
X15323872Y-9426484D02*
X15342920Y-9436008D01*
X15342920Y-9436008D02*
X15352444Y-9445531D01*
X15352444Y-9445531D02*
X15361968Y-9464579D01*
X15361968Y-9464579D02*
X15371491Y-9502674D01*
X15371491Y-9502674D02*
X15371491Y-9550293D01*
X15371491Y-9550293D02*
X15361968Y-9588389D01*
X15361968Y-9588389D02*
X15352444Y-9607436D01*
X15352444Y-9607436D02*
X15342920Y-9616960D01*
X15342920Y-9616960D02*
X15323872Y-9626484D01*
X15323872Y-9626484D02*
X15304825Y-9626484D01*
X15304825Y-9626484D02*
X15285777Y-9616960D01*
X15285777Y-9616960D02*
X15276253Y-9607436D01*
X15276253Y-9607436D02*
X15266729Y-9588389D01*
X15266729Y-9588389D02*
X15257206Y-9550293D01*
X15257206Y-9550293D02*
X15257206Y-9502674D01*
X15257206Y-9502674D02*
X15266729Y-9464579D01*
X15266729Y-9464579D02*
X15276253Y-9445531D01*
X15276253Y-9445531D02*
X15285777Y-9436008D01*
X15285777Y-9436008D02*
X15304825Y-9426484D01*
X15609587Y-9626484D02*
X15609587Y-9426484D01*
X15695301Y-9626484D02*
X15695301Y-9521722D01*
X15695301Y-9521722D02*
X15685777Y-9502674D01*
X15685777Y-9502674D02*
X15666730Y-9493150D01*
X15666730Y-9493150D02*
X15638158Y-9493150D01*
X15638158Y-9493150D02*
X15619110Y-9502674D01*
X15619110Y-9502674D02*
X15609587Y-9512198D01*
X15819110Y-9626484D02*
X15800063Y-9616960D01*
X15800063Y-9616960D02*
X15790539Y-9607436D01*
X15790539Y-9607436D02*
X15781015Y-9588389D01*
X15781015Y-9588389D02*
X15781015Y-9531246D01*
X15781015Y-9531246D02*
X15790539Y-9512198D01*
X15790539Y-9512198D02*
X15800063Y-9502674D01*
X15800063Y-9502674D02*
X15819110Y-9493150D01*
X15819110Y-9493150D02*
X15847682Y-9493150D01*
X15847682Y-9493150D02*
X15866730Y-9502674D01*
X15866730Y-9502674D02*
X15876253Y-9512198D01*
X15876253Y-9512198D02*
X15885777Y-9531246D01*
X15885777Y-9531246D02*
X15885777Y-9588389D01*
X15885777Y-9588389D02*
X15876253Y-9607436D01*
X15876253Y-9607436D02*
X15866730Y-9616960D01*
X15866730Y-9616960D02*
X15847682Y-9626484D01*
X15847682Y-9626484D02*
X15819110Y-9626484D01*
X16000063Y-9626484D02*
X15981015Y-9616960D01*
X15981015Y-9616960D02*
X15971491Y-9597912D01*
X15971491Y-9597912D02*
X15971491Y-9426484D01*
X16152444Y-9616960D02*
X16133396Y-9626484D01*
X16133396Y-9626484D02*
X16095301Y-9626484D01*
X16095301Y-9626484D02*
X16076253Y-9616960D01*
X16076253Y-9616960D02*
X16066730Y-9597912D01*
X16066730Y-9597912D02*
X16066730Y-9521722D01*
X16066730Y-9521722D02*
X16076253Y-9502674D01*
X16076253Y-9502674D02*
X16095301Y-9493150D01*
X16095301Y-9493150D02*
X16133396Y-9493150D01*
X16133396Y-9493150D02*
X16152444Y-9502674D01*
X16152444Y-9502674D02*
X16161968Y-9521722D01*
X16161968Y-9521722D02*
X16161968Y-9540770D01*
X16161968Y-9540770D02*
X16066730Y-9559817D01*
X16238158Y-9616960D02*
X16257206Y-9626484D01*
X16257206Y-9626484D02*
X16295301Y-9626484D01*
X16295301Y-9626484D02*
X16314349Y-9616960D01*
X16314349Y-9616960D02*
X16323872Y-9597912D01*
X16323872Y-9597912D02*
X16323872Y-9588389D01*
X16323872Y-9588389D02*
X16314349Y-9569341D01*
X16314349Y-9569341D02*
X16295301Y-9559817D01*
X16295301Y-9559817D02*
X16266730Y-9559817D01*
X16266730Y-9559817D02*
X16247682Y-9550293D01*
X16247682Y-9550293D02*
X16238158Y-9531246D01*
X16238158Y-9531246D02*
X16238158Y-9521722D01*
X16238158Y-9521722D02*
X16247682Y-9502674D01*
X16247682Y-9502674D02*
X16266730Y-9493150D01*
X16266730Y-9493150D02*
X16295301Y-9493150D01*
X16295301Y-9493150D02*
X16314349Y-9502674D01*
X16390539Y-9702674D02*
X16400063Y-9693150D01*
X16400063Y-9693150D02*
X16419111Y-9664579D01*
X16419111Y-9664579D02*
X16428634Y-9645531D01*
X16428634Y-9645531D02*
X16438158Y-9616960D01*
X16438158Y-9616960D02*
X16447682Y-9569341D01*
X16447682Y-9569341D02*
X16447682Y-9531246D01*
X16447682Y-9531246D02*
X16438158Y-9483627D01*
X16438158Y-9483627D02*
X16428634Y-9455055D01*
X16428634Y-9455055D02*
X16419111Y-9436008D01*
X16419111Y-9436008D02*
X16400063Y-9407436D01*
X16400063Y-9407436D02*
X16390539Y-9397912D01*
D10*
X11425000Y-9799000D02*
G75*
G03*
X11325000Y-9799000I-50000J0D01*
G01*
X11325000Y-9799000D02*
G75*
G03*
X11425000Y-9799000I50000J0D01*
G01*
D11*
X11790539Y-9890484D02*
X11676253Y-9890484D01*
X11733396Y-9890484D02*
X11733396Y-9690484D01*
X11733396Y-9690484D02*
X11714348Y-9719055D01*
X11714348Y-9719055D02*
X11695301Y-9738103D01*
X11695301Y-9738103D02*
X11676253Y-9747627D01*
X11876253Y-9871436D02*
X11885777Y-9880960D01*
X11885777Y-9880960D02*
X11876253Y-9890484D01*
X11876253Y-9890484D02*
X11866729Y-9880960D01*
X11866729Y-9880960D02*
X11876253Y-9871436D01*
X11876253Y-9871436D02*
X11876253Y-9890484D01*
X12009586Y-9690484D02*
X12028634Y-9690484D01*
X12028634Y-9690484D02*
X12047682Y-9700008D01*
X12047682Y-9700008D02*
X12057205Y-9709531D01*
X12057205Y-9709531D02*
X12066729Y-9728579D01*
X12066729Y-9728579D02*
X12076253Y-9766674D01*
X12076253Y-9766674D02*
X12076253Y-9814293D01*
X12076253Y-9814293D02*
X12066729Y-9852389D01*
X12066729Y-9852389D02*
X12057205Y-9871436D01*
X12057205Y-9871436D02*
X12047682Y-9880960D01*
X12047682Y-9880960D02*
X12028634Y-9890484D01*
X12028634Y-9890484D02*
X12009586Y-9890484D01*
X12009586Y-9890484D02*
X11990539Y-9880960D01*
X11990539Y-9880960D02*
X11981015Y-9871436D01*
X11981015Y-9871436D02*
X11971491Y-9852389D01*
X11971491Y-9852389D02*
X11961967Y-9814293D01*
X11961967Y-9814293D02*
X11961967Y-9766674D01*
X11961967Y-9766674D02*
X11971491Y-9728579D01*
X11971491Y-9728579D02*
X11981015Y-9709531D01*
X11981015Y-9709531D02*
X11990539Y-9700008D01*
X11990539Y-9700008D02*
X12009586Y-9690484D01*
X12200062Y-9690484D02*
X12219110Y-9690484D01*
X12219110Y-9690484D02*
X12238158Y-9700008D01*
X12238158Y-9700008D02*
X12247682Y-9709531D01*
X12247682Y-9709531D02*
X12257205Y-9728579D01*
X12257205Y-9728579D02*
X12266729Y-9766674D01*
X12266729Y-9766674D02*
X12266729Y-9814293D01*
X12266729Y-9814293D02*
X12257205Y-9852389D01*
X12257205Y-9852389D02*
X12247682Y-9871436D01*
X12247682Y-9871436D02*
X12238158Y-9880960D01*
X12238158Y-9880960D02*
X12219110Y-9890484D01*
X12219110Y-9890484D02*
X12200062Y-9890484D01*
X12200062Y-9890484D02*
X12181015Y-9880960D01*
X12181015Y-9880960D02*
X12171491Y-9871436D01*
X12171491Y-9871436D02*
X12161967Y-9852389D01*
X12161967Y-9852389D02*
X12152443Y-9814293D01*
X12152443Y-9814293D02*
X12152443Y-9766674D01*
X12152443Y-9766674D02*
X12161967Y-9728579D01*
X12161967Y-9728579D02*
X12171491Y-9709531D01*
X12171491Y-9709531D02*
X12181015Y-9700008D01*
X12181015Y-9700008D02*
X12200062Y-9690484D01*
X12390539Y-9690484D02*
X12409586Y-9690484D01*
X12409586Y-9690484D02*
X12428634Y-9700008D01*
X12428634Y-9700008D02*
X12438158Y-9709531D01*
X12438158Y-9709531D02*
X12447682Y-9728579D01*
X12447682Y-9728579D02*
X12457205Y-9766674D01*
X12457205Y-9766674D02*
X12457205Y-9814293D01*
X12457205Y-9814293D02*
X12447682Y-9852389D01*
X12447682Y-9852389D02*
X12438158Y-9871436D01*
X12438158Y-9871436D02*
X12428634Y-9880960D01*
X12428634Y-9880960D02*
X12409586Y-9890484D01*
X12409586Y-9890484D02*
X12390539Y-9890484D01*
X12390539Y-9890484D02*
X12371491Y-9880960D01*
X12371491Y-9880960D02*
X12361967Y-9871436D01*
X12361967Y-9871436D02*
X12352443Y-9852389D01*
X12352443Y-9852389D02*
X12342920Y-9814293D01*
X12342920Y-9814293D02*
X12342920Y-9766674D01*
X12342920Y-9766674D02*
X12352443Y-9728579D01*
X12352443Y-9728579D02*
X12361967Y-9709531D01*
X12361967Y-9709531D02*
X12371491Y-9700008D01*
X12371491Y-9700008D02*
X12390539Y-9690484D01*
X12542920Y-9890484D02*
X12542920Y-9757150D01*
X12542920Y-9776198D02*
X12552443Y-9766674D01*
X12552443Y-9766674D02*
X12571491Y-9757150D01*
X12571491Y-9757150D02*
X12600063Y-9757150D01*
X12600063Y-9757150D02*
X12619110Y-9766674D01*
X12619110Y-9766674D02*
X12628634Y-9785722D01*
X12628634Y-9785722D02*
X12628634Y-9890484D01*
X12628634Y-9785722D02*
X12638158Y-9766674D01*
X12638158Y-9766674D02*
X12657205Y-9757150D01*
X12657205Y-9757150D02*
X12685777Y-9757150D01*
X12685777Y-9757150D02*
X12704824Y-9766674D01*
X12704824Y-9766674D02*
X12714348Y-9785722D01*
X12714348Y-9785722D02*
X12714348Y-9890484D01*
X12809586Y-9890484D02*
X12809586Y-9757150D01*
X12809586Y-9776198D02*
X12819110Y-9766674D01*
X12819110Y-9766674D02*
X12838158Y-9757150D01*
X12838158Y-9757150D02*
X12866729Y-9757150D01*
X12866729Y-9757150D02*
X12885777Y-9766674D01*
X12885777Y-9766674D02*
X12895301Y-9785722D01*
X12895301Y-9785722D02*
X12895301Y-9890484D01*
X12895301Y-9785722D02*
X12904824Y-9766674D01*
X12904824Y-9766674D02*
X12923872Y-9757150D01*
X12923872Y-9757150D02*
X12952443Y-9757150D01*
X12952443Y-9757150D02*
X12971491Y-9766674D01*
X12971491Y-9766674D02*
X12981015Y-9785722D01*
X12981015Y-9785722D02*
X12981015Y-9890484D01*
X13371491Y-9680960D02*
X13200063Y-9938103D01*
X13628634Y-9690484D02*
X13647682Y-9690484D01*
X13647682Y-9690484D02*
X13666729Y-9700008D01*
X13666729Y-9700008D02*
X13676253Y-9709531D01*
X13676253Y-9709531D02*
X13685777Y-9728579D01*
X13685777Y-9728579D02*
X13695301Y-9766674D01*
X13695301Y-9766674D02*
X13695301Y-9814293D01*
X13695301Y-9814293D02*
X13685777Y-9852389D01*
X13685777Y-9852389D02*
X13676253Y-9871436D01*
X13676253Y-9871436D02*
X13666729Y-9880960D01*
X13666729Y-9880960D02*
X13647682Y-9890484D01*
X13647682Y-9890484D02*
X13628634Y-9890484D01*
X13628634Y-9890484D02*
X13609586Y-9880960D01*
X13609586Y-9880960D02*
X13600063Y-9871436D01*
X13600063Y-9871436D02*
X13590539Y-9852389D01*
X13590539Y-9852389D02*
X13581015Y-9814293D01*
X13581015Y-9814293D02*
X13581015Y-9766674D01*
X13581015Y-9766674D02*
X13590539Y-9728579D01*
X13590539Y-9728579D02*
X13600063Y-9709531D01*
X13600063Y-9709531D02*
X13609586Y-9700008D01*
X13609586Y-9700008D02*
X13628634Y-9690484D01*
X13781015Y-9871436D02*
X13790539Y-9880960D01*
X13790539Y-9880960D02*
X13781015Y-9890484D01*
X13781015Y-9890484D02*
X13771491Y-9880960D01*
X13771491Y-9880960D02*
X13781015Y-9871436D01*
X13781015Y-9871436D02*
X13781015Y-9890484D01*
X13914348Y-9690484D02*
X13933396Y-9690484D01*
X13933396Y-9690484D02*
X13952444Y-9700008D01*
X13952444Y-9700008D02*
X13961967Y-9709531D01*
X13961967Y-9709531D02*
X13971491Y-9728579D01*
X13971491Y-9728579D02*
X13981015Y-9766674D01*
X13981015Y-9766674D02*
X13981015Y-9814293D01*
X13981015Y-9814293D02*
X13971491Y-9852389D01*
X13971491Y-9852389D02*
X13961967Y-9871436D01*
X13961967Y-9871436D02*
X13952444Y-9880960D01*
X13952444Y-9880960D02*
X13933396Y-9890484D01*
X13933396Y-9890484D02*
X13914348Y-9890484D01*
X13914348Y-9890484D02*
X13895301Y-9880960D01*
X13895301Y-9880960D02*
X13885777Y-9871436D01*
X13885777Y-9871436D02*
X13876253Y-9852389D01*
X13876253Y-9852389D02*
X13866729Y-9814293D01*
X13866729Y-9814293D02*
X13866729Y-9766674D01*
X13866729Y-9766674D02*
X13876253Y-9728579D01*
X13876253Y-9728579D02*
X13885777Y-9709531D01*
X13885777Y-9709531D02*
X13895301Y-9700008D01*
X13895301Y-9700008D02*
X13914348Y-9690484D01*
X14047682Y-9690484D02*
X14171491Y-9690484D01*
X14171491Y-9690484D02*
X14104825Y-9766674D01*
X14104825Y-9766674D02*
X14133396Y-9766674D01*
X14133396Y-9766674D02*
X14152444Y-9776198D01*
X14152444Y-9776198D02*
X14161967Y-9785722D01*
X14161967Y-9785722D02*
X14171491Y-9804770D01*
X14171491Y-9804770D02*
X14171491Y-9852389D01*
X14171491Y-9852389D02*
X14161967Y-9871436D01*
X14161967Y-9871436D02*
X14152444Y-9880960D01*
X14152444Y-9880960D02*
X14133396Y-9890484D01*
X14133396Y-9890484D02*
X14076253Y-9890484D01*
X14076253Y-9890484D02*
X14057206Y-9880960D01*
X14057206Y-9880960D02*
X14047682Y-9871436D01*
X14266729Y-9890484D02*
X14304825Y-9890484D01*
X14304825Y-9890484D02*
X14323872Y-9880960D01*
X14323872Y-9880960D02*
X14333396Y-9871436D01*
X14333396Y-9871436D02*
X14352444Y-9842865D01*
X14352444Y-9842865D02*
X14361967Y-9804770D01*
X14361967Y-9804770D02*
X14361967Y-9728579D01*
X14361967Y-9728579D02*
X14352444Y-9709531D01*
X14352444Y-9709531D02*
X14342920Y-9700008D01*
X14342920Y-9700008D02*
X14323872Y-9690484D01*
X14323872Y-9690484D02*
X14285777Y-9690484D01*
X14285777Y-9690484D02*
X14266729Y-9700008D01*
X14266729Y-9700008D02*
X14257206Y-9709531D01*
X14257206Y-9709531D02*
X14247682Y-9728579D01*
X14247682Y-9728579D02*
X14247682Y-9776198D01*
X14247682Y-9776198D02*
X14257206Y-9795246D01*
X14257206Y-9795246D02*
X14266729Y-9804770D01*
X14266729Y-9804770D02*
X14285777Y-9814293D01*
X14285777Y-9814293D02*
X14323872Y-9814293D01*
X14323872Y-9814293D02*
X14342920Y-9804770D01*
X14342920Y-9804770D02*
X14352444Y-9795246D01*
X14352444Y-9795246D02*
X14361967Y-9776198D01*
X14533396Y-9757150D02*
X14533396Y-9890484D01*
X14485777Y-9680960D02*
X14438158Y-9823817D01*
X14438158Y-9823817D02*
X14561967Y-9823817D01*
X14628634Y-9690484D02*
X14628634Y-9728579D01*
X14704825Y-9690484D02*
X14704825Y-9728579D01*
X15000063Y-9966674D02*
X14990539Y-9957150D01*
X14990539Y-9957150D02*
X14971491Y-9928579D01*
X14971491Y-9928579D02*
X14961968Y-9909531D01*
X14961968Y-9909531D02*
X14952444Y-9880960D01*
X14952444Y-9880960D02*
X14942920Y-9833341D01*
X14942920Y-9833341D02*
X14942920Y-9795246D01*
X14942920Y-9795246D02*
X14952444Y-9747627D01*
X14952444Y-9747627D02*
X14961968Y-9719055D01*
X14961968Y-9719055D02*
X14971491Y-9700008D01*
X14971491Y-9700008D02*
X14990539Y-9671436D01*
X14990539Y-9671436D02*
X15000063Y-9661912D01*
X15181015Y-9890484D02*
X15066729Y-9890484D01*
X15123872Y-9890484D02*
X15123872Y-9690484D01*
X15123872Y-9690484D02*
X15104825Y-9719055D01*
X15104825Y-9719055D02*
X15085777Y-9738103D01*
X15085777Y-9738103D02*
X15066729Y-9747627D01*
X15304825Y-9690484D02*
X15323872Y-9690484D01*
X15323872Y-9690484D02*
X15342920Y-9700008D01*
X15342920Y-9700008D02*
X15352444Y-9709531D01*
X15352444Y-9709531D02*
X15361968Y-9728579D01*
X15361968Y-9728579D02*
X15371491Y-9766674D01*
X15371491Y-9766674D02*
X15371491Y-9814293D01*
X15371491Y-9814293D02*
X15361968Y-9852389D01*
X15361968Y-9852389D02*
X15352444Y-9871436D01*
X15352444Y-9871436D02*
X15342920Y-9880960D01*
X15342920Y-9880960D02*
X15323872Y-9890484D01*
X15323872Y-9890484D02*
X15304825Y-9890484D01*
X15304825Y-9890484D02*
X15285777Y-9880960D01*
X15285777Y-9880960D02*
X15276253Y-9871436D01*
X15276253Y-9871436D02*
X15266729Y-9852389D01*
X15266729Y-9852389D02*
X15257206Y-9814293D01*
X15257206Y-9814293D02*
X15257206Y-9766674D01*
X15257206Y-9766674D02*
X15266729Y-9728579D01*
X15266729Y-9728579D02*
X15276253Y-9709531D01*
X15276253Y-9709531D02*
X15285777Y-9700008D01*
X15285777Y-9700008D02*
X15304825Y-9690484D01*
X15609587Y-9890484D02*
X15609587Y-9690484D01*
X15695301Y-9890484D02*
X15695301Y-9785722D01*
X15695301Y-9785722D02*
X15685777Y-9766674D01*
X15685777Y-9766674D02*
X15666730Y-9757150D01*
X15666730Y-9757150D02*
X15638158Y-9757150D01*
X15638158Y-9757150D02*
X15619110Y-9766674D01*
X15619110Y-9766674D02*
X15609587Y-9776198D01*
X15819110Y-9890484D02*
X15800063Y-9880960D01*
X15800063Y-9880960D02*
X15790539Y-9871436D01*
X15790539Y-9871436D02*
X15781015Y-9852389D01*
X15781015Y-9852389D02*
X15781015Y-9795246D01*
X15781015Y-9795246D02*
X15790539Y-9776198D01*
X15790539Y-9776198D02*
X15800063Y-9766674D01*
X15800063Y-9766674D02*
X15819110Y-9757150D01*
X15819110Y-9757150D02*
X15847682Y-9757150D01*
X15847682Y-9757150D02*
X15866730Y-9766674D01*
X15866730Y-9766674D02*
X15876253Y-9776198D01*
X15876253Y-9776198D02*
X15885777Y-9795246D01*
X15885777Y-9795246D02*
X15885777Y-9852389D01*
X15885777Y-9852389D02*
X15876253Y-9871436D01*
X15876253Y-9871436D02*
X15866730Y-9880960D01*
X15866730Y-9880960D02*
X15847682Y-9890484D01*
X15847682Y-9890484D02*
X15819110Y-9890484D01*
X16000063Y-9890484D02*
X15981015Y-9880960D01*
X15981015Y-9880960D02*
X15971491Y-9861912D01*
X15971491Y-9861912D02*
X15971491Y-9690484D01*
X16152444Y-9880960D02*
X16133396Y-9890484D01*
X16133396Y-9890484D02*
X16095301Y-9890484D01*
X16095301Y-9890484D02*
X16076253Y-9880960D01*
X16076253Y-9880960D02*
X16066730Y-9861912D01*
X16066730Y-9861912D02*
X16066730Y-9785722D01*
X16066730Y-9785722D02*
X16076253Y-9766674D01*
X16076253Y-9766674D02*
X16095301Y-9757150D01*
X16095301Y-9757150D02*
X16133396Y-9757150D01*
X16133396Y-9757150D02*
X16152444Y-9766674D01*
X16152444Y-9766674D02*
X16161968Y-9785722D01*
X16161968Y-9785722D02*
X16161968Y-9804770D01*
X16161968Y-9804770D02*
X16066730Y-9823817D01*
X16238158Y-9880960D02*
X16257206Y-9890484D01*
X16257206Y-9890484D02*
X16295301Y-9890484D01*
X16295301Y-9890484D02*
X16314349Y-9880960D01*
X16314349Y-9880960D02*
X16323872Y-9861912D01*
X16323872Y-9861912D02*
X16323872Y-9852389D01*
X16323872Y-9852389D02*
X16314349Y-9833341D01*
X16314349Y-9833341D02*
X16295301Y-9823817D01*
X16295301Y-9823817D02*
X16266730Y-9823817D01*
X16266730Y-9823817D02*
X16247682Y-9814293D01*
X16247682Y-9814293D02*
X16238158Y-9795246D01*
X16238158Y-9795246D02*
X16238158Y-9785722D01*
X16238158Y-9785722D02*
X16247682Y-9766674D01*
X16247682Y-9766674D02*
X16266730Y-9757150D01*
X16266730Y-9757150D02*
X16295301Y-9757150D01*
X16295301Y-9757150D02*
X16314349Y-9766674D01*
X16390539Y-9966674D02*
X16400063Y-9957150D01*
X16400063Y-9957150D02*
X16419111Y-9928579D01*
X16419111Y-9928579D02*
X16428634Y-9909531D01*
X16428634Y-9909531D02*
X16438158Y-9880960D01*
X16438158Y-9880960D02*
X16447682Y-9833341D01*
X16447682Y-9833341D02*
X16447682Y-9795246D01*
X16447682Y-9795246D02*
X16438158Y-9747627D01*
X16438158Y-9747627D02*
X16428634Y-9719055D01*
X16428634Y-9719055D02*
X16419111Y-9700008D01*
X16419111Y-9700008D02*
X16400063Y-9671436D01*
X16400063Y-9671436D02*
X16390539Y-9661912D01*
M02*
